<?xml version="1.0" encoding="UTF-8"?>
<svg xmlns="http://www.w3.org/2000/svg" xmlns:xlink="http://www.w3.org/1999/xlink" width="128pt" height="128pt" viewBox="0 0 128 128" version="1.1">
<g id="surface1">
<path style=" stroke:none;fill-rule:nonzero;fill:rgb(75.686275%,20.784314%,19.215686%);fill-opacity:0.2;" d="M 0 96 L 32 96 L 32 128 L 0 128 Z M 0 96 Z M 0 96 "/>
<path style=" stroke:none;fill-rule:nonzero;fill:rgb(75.686275%,20.784314%,19.215686%);fill-opacity:0.788235;" d="M 0 64 L 32 64 L 32 96 L 0 96 Z M 0 64 Z M 0 64 "/>
<path style=" stroke:none;fill-rule:nonzero;fill:rgb(75.686275%,20.784314%,19.215686%);fill-opacity:0.827451;" d="M 0 32 L 32 32 L 32 64 L 0 64 Z M 0 32 Z M 0 32 "/>
<path style=" stroke:none;fill-rule:nonzero;fill:rgb(75.686275%,20.784314%,19.215686%);fill-opacity:0.588235;" d="M 0 0 L 32 0 L 32 32 L 0 32 Z M 0 0 Z M 0 0 "/>
<path style=" stroke:none;fill-rule:nonzero;fill:rgb(75.686275%,20.784314%,19.215686%);fill-opacity:0.741176;" d="M 32 96 L 64 96 L 64 128 L 32 128 Z M 32 96 Z M 32 96 "/>
<path style=" stroke:none;fill-rule:nonzero;fill:rgb(75.686275%,20.784314%,19.215686%);fill-opacity:0.294118;" d="M 32 64 L 64 64 L 64 96 L 32 96 Z M 32 64 Z M 32 64 "/>
<path style=" stroke:none;fill-rule:nonzero;fill:rgb(75.686275%,20.784314%,19.215686%);fill-opacity:0.423529;" d="M 32 32 L 64 32 L 64 64 L 32 64 Z M 32 32 Z M 32 32 "/>
<path style=" stroke:none;fill-rule:nonzero;fill:rgb(75.686275%,20.784314%,19.215686%);fill-opacity:0.384314;" d="M 32 0 L 64 0 L 64 32 L 32 32 Z M 32 0 Z M 32 0 "/>
<path style=" stroke:none;fill-rule:nonzero;fill:rgb(75.686275%,20.784314%,19.215686%);fill-opacity:0.67451;" d="M 64 96 L 96 96 L 96 128 L 64 128 Z M 64 96 Z M 64 96 "/>
<path style=" stroke:none;fill-rule:nonzero;fill:rgb(75.686275%,20.784314%,19.215686%);fill-opacity:0.894118;" d="M 64 64 L 96 64 L 96 96 L 64 96 Z M 64 64 Z M 64 64 "/>
<path style=" stroke:none;fill-rule:nonzero;fill:rgb(75.686275%,20.784314%,19.215686%);fill-opacity:0.403922;" d="M 64 32 L 96 32 L 96 64 L 64 64 Z M 64 32 Z M 64 32 "/>
<path style=" stroke:none;fill-rule:nonzero;fill:rgb(75.686275%,20.784314%,19.215686%);fill-opacity:0.666667;" d="M 64 0 L 96 0 L 96 32 L 64 32 Z M 64 0 Z M 64 0 "/>
<path style=" stroke:none;fill-rule:nonzero;fill:rgb(75.686275%,20.784314%,19.215686%);fill-opacity:0.780392;" d="M 96 96 L 128 96 L 128 128 L 96 128 Z M 96 96 Z M 96 96 "/>
<path style=" stroke:none;fill-rule:nonzero;fill:rgb(75.686275%,20.784314%,19.215686%);fill-opacity:0.486275;" d="M 96 64 L 128 64 L 128 96 L 96 96 Z M 96 64 Z M 96 64 "/>
<path style=" stroke:none;fill-rule:nonzero;fill:rgb(75.686275%,20.784314%,19.215686%);fill-opacity:0.92549;" d="M 96 32 L 128 32 L 128 64 L 96 64 Z M 96 32 Z M 96 32 "/>
<path style=" stroke:none;fill-rule:nonzero;fill:rgb(75.686275%,20.784314%,19.215686%);fill-opacity:0.6;" d="M 96 0 L 128 0 L 128 32 L 96 32 Z M 96 0 Z M 96 0 "/>
</g>
</svg>
