<?xml version="1.0" encoding="utf-8"?>
<!-- Generator: Adobe Illustrator 16.0.0, SVG Export Plug-In . SVG Version: 6.00 Build 0)  -->
<!DOCTYPE svg PUBLIC "-//W3C//DTD SVG 1.1//EN" "http://www.w3.org/Graphics/SVG/1.1/DTD/svg11.dtd">
<svg version="1.1" id="图层_1" xmlns="http://www.w3.org/2000/svg" xmlns:xlink="http://www.w3.org/1999/xlink" x="0px" y="0px"
	 width="600px" height="600px" viewBox="0 0 600 600" enable-background="new 0 0 600 600" xml:space="preserve">
<path fill="#CECECE" d="M437.379,318.994c0,0-30.658,0-66.959-25.22c-43.413-30.155-36.314-82.554-36.314-103.451
	c0-87.189-67.463-160.773-154.655-160.773c-87.182,0-157.865,70.681-157.865,157.864c0,87.181,77.537,154.318,166.602,150.207
	c42.475-1.961,59.605,10.959,83.577,28.086c28.832,20.596,37.7,74.367,39.809,91.116c0.146,1.618,0.327,3.223,0.543,4.822
	c0.011,0.15,0.019,0.238,0.019,0.238h0.006c8.105,61.954,61.072,109.812,125.238,109.812c69.784,0,126.354-56.572,126.354-126.351
	C563.732,375.559,507.163,318.994,437.379,318.994z"/>
<path fill="#FFFFFF" d="M179.45,246.577c-32.632,0-59.084-26.45-59.084-59.084c0-32.635,26.452-59.086,59.084-59.086
	c32.633,0,59.09,26.451,59.09,59.086C238.541,220.127,212.083,246.577,179.45,246.577z"/>
<circle fill="#FFFFFF" cx="437.379" cy="445.422" r="41.617"/>
<path fill="#293C54" d="M437.151,368.385c-1.467,0-4.108,0-4.108,0c-34.427,2.576-66.916-22.809-92.996-44.699
	c-28.223-23.673-50.356-60.788-55.833-86.309c-3.537-16.459-1.15-41.928-1.15-49.796c0-57.348-46.494-103.84-103.839-103.84
	c-57.351,0-103.836,46.492-103.836,103.84c0,57.338,46.538,106.229,103.836,103.833c31-1.296,84.435,2.813,124.639,46.57
	c45.308,49.32,51.173,75.124,54.334,93.088c1.626,9.253,0.087,17.215,0.087,21.323c0,44.296,34.572,76.398,78.866,76.398
	c44.297,0,80.2-35.914,80.2-80.198C517.352,404.297,481.448,368.385,437.151,368.385z"/>
<path fill="#C23531" d="M179.225,246.613c-32.634,0-59.088-26.453-59.088-59.087c0-32.633,26.455-59.084,59.088-59.084
	c32.63,0,59.088,26.451,59.088,59.084C238.313,220.16,211.855,246.613,179.225,246.613z"/>
<path fill="#C23531" d="M437.151,487.078c-22.983,0-41.614-18.637-41.614-41.621c0-22.985,18.631-41.612,41.614-41.612
	c22.984,0,41.62,18.627,41.62,41.612C478.771,468.441,460.136,487.078,437.151,487.078z"/>
<path fill="#293C54" d="M520.707,92.551c-31.809,0-57.596,25.783-57.596,57.595c0,31.805,25.787,57.593,57.596,57.593
	c31.801,0,57.595-25.788,57.595-57.593C578.302,118.334,552.508,92.551,520.707,92.551z M520.707,181.023
	c-17.057,0-30.878-13.829-30.878-30.877c0-17.056,13.821-30.877,30.878-30.877c17.049,0,30.871,13.821,30.871,30.877
	C551.578,167.194,537.756,181.023,520.707,181.023z"/>
<path fill="#C23531" d="M520.707,181.023c17.049,0,30.871-13.829,30.871-30.877c0-17.056-13.822-30.877-30.871-30.877
	c-17.057,0-30.878,13.821-30.878,30.877C489.829,167.194,503.65,181.023,520.707,181.023z"/>
</svg>
