<?xml version="1.0" encoding="utf-8"?>
<!-- Generator: Adobe Illustrator 16.0.0, SVG Export Plug-In . SVG Version: 6.00 Build 0)  -->
<!DOCTYPE svg PUBLIC "-//W3C//DTD SVG 1.1//EN" "http://www.w3.org/Graphics/SVG/1.1/DTD/svg11.dtd">
<svg version="1.1" id="图层_1" xmlns="http://www.w3.org/2000/svg" xmlns:xlink="http://www.w3.org/1999/xlink" x="0px" y="0px"
	 width="600px" height="600px" viewBox="0 0 600 600" enable-background="new 0 0 600 600" xml:space="preserve">
<polygon fill="none" points="462.574,519.873 462.574,525.57 462.609,525.57 "/>
<polygon fill="none" points="462.574,519.873 462.574,525.57 462.609,525.57 "/>
<path fill="#803B40" d="M495.756,95.928l-0.954-3.008l-2.463-4.238l-2.05-1.095l-2.051,1.095l-1.23,2.46l-0.137,0.274h-0.273h-0.137
	l-3.826,0.682c-0.409,0.275-0.82,0.414-1.094,0.822l-0.822,0.957l-2.051,1.641l-0.546,0.271l-1.777,0.275
	c-0.819-0.137-2.048-0.819-3.69-2.051l-0.138-0.137c-2.734-2.735-4.103-4.648-4.103-5.741v-3.557v-0.137v-0.134l0.412-0.687
	l-3.963-1.364l-0.138,1.364c0,0.411-0.411,0.957-1.095,1.368l-1.369,0.549l-0.544-0.138v-0.14l-2.05-0.408l0.41,1.505l-3.555-2.325
	h-0.137l-0.138-0.139l0,0c-0.547-1.504-0.821-3.005-0.821-4.645c0-1.369,0.139-2.189,0.684-2.735l0.822-1.505l-0.272-1.228
	l-3.558,0.542c-1.776,0.139-3.004,1.233-3.689,3.285v0.137l0,0l-2.051,3.144l2.051-0.138h0.137l0.137-0.137l0.139,0.274l1.639,0.685
	h0.273l0.271,0.137v0.41l0.273,2.869l0.82,2.734v0.139v0.135v0.138l-4.512,8.887c-0.818,1.229-1.229,4.51-1.501,9.431v0.408
	l-1.778,3.422l1.229,1.367v0.271c0.138,2.051,0,3.281-0.547,3.553l-0.409,0.137c-0.957,0.549-4.1,3.83-9.159,9.98l-0.411,0.412
	l-0.271-0.138l-0.41-0.274c-1.777-1.229-3.418-2.32-4.375-3.418c-0.82-0.545-2.872-0.955-6.289-0.955l-0.135,6.289l-0.139,0.136
	l-2.461,11.892c-0.547,1.506-0.685,4.241-0.685,8.342l0.958,1.229l0.82-1.64h0.138l0.136-0.271l3.146-1.642l8.746,1.364l0.959-1.092
	l1.229-2.189l0.273-0.135l0,0l0.137-0.137l3.42-0.684l4.51-0.273c1.368,0.273,3.009,2.053,5.058,4.787
	c5.469,2.732,8.478,5.191,9.159,7.38c0.411,1.093,0.411,1.912,0,2.872c-0.408,0.955-1.364,1.502-2.731,1.638h-0.139
	c-6.696-0.272-10.527-0.272-11.896,0.14l-3.279,2.184c-4.102,3.009-6.836,4.512-8.338,4.512l-2.734,0.413l-1.642,6.835
	c-0.409,2.052-1.094,3.418-2.324,4.373c-1.093,1.094-2.732,1.777-4.921,2.188c-2.598,0.409-4.783,1.366-6.834,2.597l-2.326,4.922
	l-0.138,0.137h-0.136h-0.137l-6.287,2.598h-0.41l-3.143-0.682c-2.463-0.41-4.377-1.097-5.608-1.916
	c-1.64-0.82-3.417-0.957-5.331-0.411c-1.64,2.327-2.46,5.196-2.324,8.339c0.137,1.641,0.547,2.734,0.957,3.008l0.958-0.135
	l1.094-0.684l0.274,4.375c0,1.502-0.548,2.596-1.643,3.418c-0.684,0.546-1.912,1.094-3.69,1.639l-1.093,0.273
	c-1.367,0.547-4.24,4.238-8.477,10.936v0.138h-0.136l-4.104,2.46c0.685,0,1.095,0.275,0.957,0.822
	c-0.137,0.547-0.546,0.684-1.64,0.82l-11.619-0.273c-12.988-0.41-23.104,3.143-30.348,10.525l-0.14,0.138l-0.272,0.138h-0.135
	l-4.786,0.547l-0.275,0.135h-0.272l-1.367-3.279l-4.922,1.229c-2.598,0.135-6.016-0.546-9.843-2.461
	c-3.554-1.502-6.698-3.554-9.844-6.014c-2.049-1.641-4.648-2.734-7.656-3.283l-4.374-0.409l-4.921,0.685
	c-3.555,0.545-7.109,0.545-10.391,0.273c-3.964-0.273-8.749-1.367-14.49-3.145l-0.411,0.82h0.138h0.136l0.137,0.135v0.138
	l0.135,1.367l1.232,2.599l2.869,3.555l0.137,0.41l-0.546,2.596v0.139h-0.136l-1.642,2.186l1.778,1.779
	c0.685,0.682,1.092,1.227,1.092,1.775l0.412,2.599l2.051,2.05v0.273l0.272,1.775v1.366l1.231,0.96l0.82-0.273l0.136-0.412
	c0.41-1.092,1.093-1.641,2.051-1.775l1.093-0.409l7.247-0.683l2.871-1.097l0.272-0.136l0.411-0.273l1.504,3.281h0.136l0,0
	c0.139,0.817,0,1.504-0.408,2.186l-3.967,5.608l0.273,0.955l1.778,1.777l1.777,1.095h0.139c0.82,1.094,1.501,1.774,2.322,2.048
	c0.956,0.276,1.915,1.095,2.734,2.188l0.136,0.41l1.368,0.545l0.41,0.138h0.138l0.41,1.505l0,0l0.137,1.504l0.546,2.189l3.416,0.545
	h0.274l0.136,0.139v0.135l0.136,0.274l0.959,1.913l2.734,0.955l1.914-0.955l-0.273-1.095l-1.775-1.64l0.272-0.271v-0.277
	l1.503-2.871h3.281l0.136,0.139l4.649,1.641l2.598-0.41l2.05-1.914c2.324-2.873,3.827-4.1,4.784-3.415l1.095-0.138
	c1.229,0,1.913,0.138,2.324,0.271c0.136,0.276,0.273,0.55,0.273,0.824c0,0.544,0.548,1.636,1.366,3.142v0.137v0.139l0.412,1.911
	v0.411l-0.547,2.188l0,0v0.136l-0.139,0.136l-2.324,2.736l-0.137,0.135l0,0l-4.92,2.188l-0.685,1.367l-0.684,3.965l0.411,1.916
	l1.23,2.05l0.545,0.409l1.642,1.096h5.743l4.784-0.683l0.684-0.687c0.684-0.818,1.366-1.095,1.776-1.095l3.279,0.548l0.274-0.548
	c-0.274-0.953-0.274-1.775,0.274-2.595l1.367-2.326v-4.371v-0.141l2.462-7.109l0.136-0.135v-0.137h0.137v-0.135l4.237-3.421
	l0.272-0.273l3.693,1.642l0,0c1.912,1.367,2.869,2.459,2.869,3.145l-0.273,3.006l-1.23,1.916l-0.955,2.734v3.006l0.955,1.369
	l1.23-0.139l0.273-0.137l2.051,0.137c1.094,0.547,1.779,1.506,2.324,2.873l1.23,0.408h0.139l0,0h0.136l4.646,2.188l2.053,0.686
	l2.871-0.409l1.229-1.642l1.642-6.699l0.135-3.693v-0.273l0.273-0.135l0.139-0.138l2.598-2.188l1.503-1.912l0.137-0.137l2.733-1.231
	l1.641-0.956l2.051-0.819l-1.093-4.101l4.647,0.548l0,0v0.136l0,0l2.461,0.955l0,0v-0.138l0.684-2.595v-0.41l0.41,0.135h0.273
	l2.186,0.547h1.095l2.051-2.324h0.136l0.138-0.137h0.136l2.736-0.545l2.322-2.189l1.23-1.775V247.4c0-0.821,0.41-1.367,1.23-1.777
	l0,0h0.274h0.136l2.598,0.271l1.094-0.684l0.41-1.912l2.733-0.82h0.137h0.138l0,0l3.418,0.41l2.732-0.684l1.641-1.641l1.094-2.186
	l-2.051-2.191v-0.135l0,0l-0.408-1.643l0,0l-0.549-2.458v-0.137l1.231-2.188c0-0.682,0.409-1.641,1.503-2.734l1.504-3.006v-0.138
	h0.137l1.368-2.187l2.05-4.103l1.914,2.734l0.137,0.138v0.135l0.684,2.736v0.137l0.41,2.732l1.914,0.82h0.137l0,0l0,0l0.548,0.275
	l0.136-0.139l1.64-2.869l0.958-2.734l0.409,0.137l0.411,0.137l3.965,1.367l1.914-1.504l0.137-0.137h0.271l1.914-0.139l1.368-2.322
	v-2.869l0.957-4.379l0.272,0.141h0.411l3.007,0.682l1.365-2.459h0.139h0.273l2.735-0.273h0.41v0.135l0.272,0.139l1.369,1.912v0.136
	l0.137,0.138v0.273l0.271,2.734l1.368,1.23l1.912-1.777l0.411,0.547c0.685,0.684,0.956,1.366,0.956,2.187v2.46l-0.956,2.463
	l0.685,1.094l1.367,1.502l5.738,0.822l0.139,0.135l0,0l0.275,0.137l0,0l0.408,0.409l1.642-2.321h0.138l1.367-1.369l-0.549-2.051
	l-1.502-8.748l3.963,1.915h0.137h0.135l1.779,2.188l1.094,1.092l1.641-1.092l5.74-6.289l0,0h0.139l2.051-1.506l2.322-3.279
	l0.139-0.273l3.143,0.818h1.505c0-1.23,0.272-2.053,0.409-2.598l2.324-2.732l0.685-0.412l2.733,0.957l3.281-0.409l2.188-2.325
	l1.092-2.05l-0.682-1.097l-1.914,0.959l-0.135-0.135l-0.14-0.139l-2.46-2.184l-0.137-0.14l0.959-3.689l0.27-2.734l-0.684-2.323
	l-1.912-0.684v-0.139l-0.138-0.137l-0.136-0.136l-1.641-3.282l-0.272-0.409l-2.323,2.736l-2.326,1.501l-0.547,0.274l-0.136-0.136
	l-0.139-0.273l-2.46-2.325v-0.136l-1.775-3.83v-0.135l-0.819-2.734v-0.135l0,0v-4.105l-0.274-2.459l-1.915-0.682h-0.136v-0.138
	l-4.373-3.419l0.27-0.41l2.051-2.186V161v-0.136h0.274l0,0l2.323-0.274h0.139c0.683,0,1.367,0.41,1.914,1.096l1.914,1.5l2.05-1.637
	l1.503-2.053v-1.775l-0.546-4.377l-0.411-1.775l-3.008-0.548v-1.777l-2.733-3.417l-0.138-0.138l-1.367-2.462l-0.271-0.271v-0.274
	l0,0l3.008-3.965v-0.137l0.137-0.138v-0.136h0.273l1.229-0.137l1.504-1.23l1.778-5.469h0.136v-0.135l2.188-2.461v-0.137h0.138h0.135
	l2.462-0.686v0.273l1.638,1.367l0.549,0.139l0.957-4.24l-0.957-3.007l-0.137-0.136v-0.275l0.41-3.416v-0.271l1.641-1.779
	l1.095-1.914l0.134-1.641c0-0.819-0.407-2.188-1.229-4.236l0,0l0,0v-3.283v-0.135l0.686-2.871c-0.549-1.23-0.959-2.188-0.959-2.872
	L495.756,95.928z"/>
<path fill="#A03735" d="M302.59,262.438h-2.188l-0.684,1.503l1.229,1.231v0.136v0.137l0.548,1.777l0.136,0.137v0.409l-0.272,0.139
	l-3.006,1.503l-0.138,0.138l0,0h-0.136h-0.137c-2.325-0.276-3.554-0.958-3.965-1.917l-0.82-1.64l-4.102-0.818l-1.095-5.196
	c-0.819-0.137-1.503-0.549-1.913-1.095l-0.137-0.272c-0.684-0.955-1.23-1.505-2.049-1.638c-1.093-0.413-2.053-1.233-2.872-2.462
	l-1.64-0.957h-0.137l0,0l0,0l-2.188-2.189l0,0l-0.546-1.912v-0.139l4.375-6.014c0.137-0.41,0.272-0.685,0.137-0.82l-0.82-1.914
	l-2.325,0.957h-0.139v0.136h-0.135l-6.016,0.411l-2.323,0.546l-0.82,0.821l-0.412,0.822c-0.545,0.682-1.365,1.091-2.597,0.816l0,0
	l-0.135-0.135l-2.052-1.504l-0.137-3.419c-1.095-0.817-1.779-1.638-2.051-2.323l-0.547-3.008l-1.368-1.639l-1.501-1.231
	l-0.685-0.411l2.46-3.144l0.547-1.779l-2.735-3.415h-0.135v-0.136l-1.231-2.736v-0.136l0,0l-0.272-1.367l-1.78-1.367v-0.137l0,0l0,0
	l-1.913-2.053l-2.46-0.408l-2.736,0.82l-0.41,0.549l-0.409,3.824v4.24l-0.41,0.135l-2.598,0.957l0,0v0.137l0,0l-2.46,0.138
	c-1.23,0.685-2.598,1.366-4.101,1.912l-0.275,0.14l0,0h-0.136l-4.649-1.097l-1.914,2.052c-0.41,0.547-1.366,1.094-2.596,1.369
	l-2.872,2.321l-1.505,2.326v0.136l-0.136,0.137c-0.819,1.23-1.504,2.188-2.051,2.6l-1.638,2.051v0.135l-0.137,0.137l-0.956,0.682
	c-0.685,0.275-1.368,0.413-1.916,0.413l-3.418-0.274l-0.82,1.229l-1.229,2.188l0.547,2.186l-0.273,5.332l0.954,1.643v0.135
	l0.411,1.232h1.913l3.282,0.685l4.238,0.271l1.912-0.271h0.275h0.137l3.689,1.364l0,0h0.138l1.912,1.506l4.103,1.5h0.137
	l2.733,1.643l6.7,6.152l3.007,1.366l1.23-0.544l1.23-2.326l-0.684-3.691c0-1.094,0.821-1.777,2.461-2.46l0.272-0.14l8.341,4.924
	l0.955-0.272l1.916-1.095h0.272l1.093,0.136l1.641-1.366l0.274-0.135l0.411,0.271l4.919,3.418l0.138,0.137l3.146,2.6
	c0.819,0.544,1.912,1.501,2.87,2.867l1.504,1.643l1.23-0.139l1.367-2.595l2.87,2.05h0.138h0.136l0,0l2.324,2.867l6.151,4.649l0,0
	l1.778,2.054l5.334-1.506l0.271,3.964l2.324,2.325l0,0v0.137l1.913,2.872v0.136v0.137v0.137l2.051,9.431l2.052,3.831l-2.735,6.97
	v0.411l-2.323,0.548v2.052l-0.137,0.133l-2.325,3.828h-0.272l-3.282,0.276l-3.281,2.732c0.411,0.411,0.958,0.683,1.915,1.093
	c1.366,0.412,1.504,1.507,0.819,3.417v0.14l-2.323,2.324h-0.138l-0.136,0.273h-0.137h-0.136l-6.562-0.956l-0.138,2.321l0.684,4.924
	l5.467,2.324v0.272l0,0l2.051-0.685l0.138-0.135l0.274-0.138l0.136,0.272h0.136l1.504,0.82h2.324l0.819-0.136l-0.819-2.597l0,0l0,0
	l-0.547-2.737v-0.137v-0.271l0.136-0.139v-0.139l0.821-0.953l0.274-0.274l0,0l0.135-0.136l1.503-2.053l0.139-0.137l2.461-1.912
	h0.136v-0.14h0.138l0,0l3.007-0.409v0.822c0,0.955,0.138,1.639,0.274,2.051l0.546,1.23l0.819,1.775l2.734,1.506l7.52,0.682h0.274
	h0.409v0.411v0.274l-0.273,2.461l2.189,2.322l1.639,0.684l0.274,0.137v0.139l0.137,0.271v0.956v1.369l-0.683,2.732l0.955,0.686
	c1.095-0.137,2.051-0.137,3.008,0.546l3.146,1.503l1.912-1.503l2.05-2.187l0.138-0.957l0.136-0.273l0.274-0.137l0.274-0.273v-0.273
	l-0.685-2.871l-0.138-1.506l-0.135-0.133v-0.139l0.135-0.137v-0.136l1.096-1.777l0.137-0.138l0,0l2.188-1.506h0.137h4.512
	l0.684-0.27l-0.138-2.328l-0.685-2.048l-1.505-2.46l-0.135-0.137v-0.138v-3.415v-0.142l0,0l0.819-2.05l0,0l0.137-0.135l0,0
	l3.692-5.332l0.137-0.139h0.136l0.275-0.134h0.82l1.365,0.134l3.145,1.777l2.051,0.549l0.273-0.958l-0.411-0.272v-0.41
	c0-0.819,0.411-1.504,1.233-2.188l2.459-1.777l0.137-0.137l0,0v-0.137c1.367-0.408,2.188-0.682,2.733-0.682l2.188-0.275h0.273l0,0
	l1.367,0.275l0.955-3.421v-2.321c0-1.506,0-2.461,0.411-2.734l0.957-1.779l-1.231-1.639l-1.638-1.094l-3.419-0.957
	c-0.684,0-1.914-0.684-3.965-2.461l-2.051-0.959h-0.137l-0.137-0.137l-2.46-3.005h-2.325l-0.137-0.138h-0.137l-2.051-1.096
	l-1.229,1.643l-0.275,6.426l0.411,2.461h0.958l0.135,0.133l1.914,0.55v0.136v0.137l0.957,2.325h0.136v0.138l0,0v0.137l-0.546,4.235
	v0.274v0.137l-0.137,0.137c-0.684,0.409-1.229,0.682-1.912,1.094l-0.275,0.138l-0.137-0.138h-0.135l-0.958-0.273l-2.19,0.82h-0.135
	l0.135,0.41l0.14,0.138l0.409,3.688c0,0.549-0.271,0.821-0.82,0.959h-1.641c-0.82-0.138-1.229-0.41-1.64-0.818l-1.64-1.231
	l-0.136-0.138h-0.14v-0.139l-0.955-2.321c-0.273-0.272-0.957-0.683-2.324-1.095h-0.139h-0.135l-1.916-1.367h-0.271v-0.274l0,0
	l-0.549-2.321l0.274-1.777h0.137v-0.137l0,0l0.82-0.959v-0.684l-0.82-2.461l-1.911-1.777v-0.273l-0.549-5.604l-1.367-1.365h-0.138
	l-0.135-0.139l0,0l-1.095-2.598l-4.921-0.546c-1.23-0.411-2.052-1.231-2.599-2.327h-2.188c-0.818-0.271-1.64-0.82-2.597-1.773
	l-0.272-0.275c-0.548-0.547-1.095-1.367-1.64-2.461l0,0l-0.138-0.137l-0.41-2.189l0,0v-0.135v-0.137l0,0l0.819-4.238v-0.135
	l0.82-1.775v-0.141v-0.134h0.139l5.193-2.189l2.051-2.46l0.411-2.052l-0.273-1.501c-0.821-1.779-1.368-2.874-1.368-3.557
	l-1.092,0.137l-1.916-0.137c-0.41,0.137-1.501,1.365-3.006,3.146l-2.325,2.188h-0.137l-0.137,0.135
	c-1.778,0.412-3.007,0.684-3.692,0.412L302.59,262.438z"/>
<path fill="#C13531" d="M338.953,263.668l-2.459,6.835v4.512v0.138l-1.367,2.324l-0.273,1.641c0.273,0.955-0.139,1.775-1.094,2.322
	l-0.274,0.139h-0.138l-0.137-0.139l-3.416-0.41l-1.777,1.639l-5.193,0.82l0,0h-2.189l1.369,0.959l4.92,0.549h0.273h0.274
	l0.135,0.135v0.137l1.232,3.008l1.368,0.957c0.407,0.547,0.683,1.366,0.683,2.872l0.135,3.69l1.64,1.502h0.139v0.138h0.136
	l0.821,2.734v1.505l-0.957,1.367l-0.274,1.229l0.41,1.366l1.641,1.095c1.778,0.683,2.735,1.094,3.146,1.779l0.957,2.049
	c1.093,0.547,1.639,1.094,1.912,1.641l1.23,0.41h0.138l-0.547-3.008c-0.139-0.682-0.139-1.366,0.136-1.641
	c0.273-0.408,0.548-0.685,1.094-0.82l2.051-0.685l0,0l0.137-0.136h0.139l0.136,0.136l0.958,0.274l1.23-0.684v-0.27l0.408-3.42
	l-0.821-1.643l-1.093-0.546l-1.366-0.138h-0.274l-0.271-0.137l-0.547-3.555l0.135-6.97l0.273-0.272l2.051-2.873l3.009,1.641h1.776
	l1.367-8.887c-0.41-0.956-0.82-1.641-1.642-2.049l-0.819-0.138v0.138h-0.41l-2.188,0.408l-0.134-0.271l-0.137-0.137l-1.505-1.915
	v-0.14l-0.136-0.133v-3.418l0.546-1.914l0.548-0.82c0-0.549,0.135-1.096,0.684-1.777l0.547-0.686l0.135-2.324l-2.05-1.912
	l-2.735-1.367L338.953,263.668z"/>
<path fill="#A03735" d="M245.582,214.453l0.137-0.137h0.137v-0.135l-4.375-12.443l-2.733-2.185v-0.274l-0.685-5.062l-5.741-0.815
	h-0.136h-0.275v-0.14l-0.136-0.272v-0.137c-0.683-1.916-2.461-3.963-5.193-6.152c-1.505-1.229-3.01-2.051-4.241-2.324
	c-0.956-0.545-1.914-0.956-2.596-1.504c-1.777-1.231-7.929-2.188-18.729-2.461h-0.41l0,0l-1.23-1.914
	c-0.548-1.229-0.959-2.323-1.094-3.553c0-1.505,1.779-6.428,5.605-14.492l-1.914-6.016l0,0l-2.051-9.566
	c-0.274-1.369-2.596-2.6-6.697-3.83c-0.821-0.275-1.642-0.549-2.463-1.094c-1.504-0.685-2.597-1.912-3.145-3.419
	c-0.82-1.776-2.187-3.278-4.1-4.101l-0.138-0.137l-0.136-0.136l-1.64-8.478l-6.563,0.686l-0.683,1.777
	c-0.821,2.869-1.64,4.237-2.597,4.237l-4.237,1.364c-2.601,0.959-4.24,2.055-5.058,3.285c-0.411,0.547-0.821,2.186-1.094,4.372
	c-0.411,2.462-0.82,4.237-1.368,5.332c-0.82,1.775-2.051,3.146-3.965,3.829c-3.554,1.367-9.569-0.957-17.909-6.836l-11.209,14.354
	l1.368,5.883h0.136l0.137,0.27l-0.273,0.135v0.139c-0.547,0.82-1.368,1.365-2.326,1.504c-1.092,0.275-2.187-0.139-3.417-0.959
	c-1.092-0.818-4.238-1.5-9.296-1.775l-2.324-0.135l0,0l-3.417-0.274l-3.693,0.685l1.641,2.32c1.367,1.779,1.912,2.873,1.778,3.557
	l-1.504,8.887l0.685,4.783h0.135v0.135l-0.135,0.141l0,0l-2.736,8.887c-0.137,0.818-0.411,1.228-0.684,1.092h-0.273v-0.139
	l-0.411-0.818c-0.547-1.092-0.819-1.502-1.231-1.367c-0.273,0.135-0.682,0.685-0.819,1.912c-0.547,2.465-2.05,4.512-4.374,6.7
	l-2.462,1.916l-1.23,0.683l0,0H92.06l-8.885,0.136l-3.418,3.28h-0.137h-0.273h-0.137l-9.434-1.366
	c-1.501,1.642-3.005,2.187-4.509,1.913c-1.369-0.41-3.693,0.137-6.972,1.367l-3.829,4.514l-0.137,0.271l-6.014,0.136v-5.057h-3.83
	l-0.684,2.188l-2.869,0.683h-0.274l0,0l-0.137-0.137h-0.137c-1.777-1.094-3.965-1.914-6.152-2.186
	c-1.229-0.138-2.734,0.683-4.922,2.597c-2.323,1.911-3.964,3.69-4.785,5.332c0.411,0.274,0.684,0.819,0.684,1.64
	c0.275,0.957,0.411,1.777,0.411,2.87c-0.135,1.095-0.546,1.777-1.095,2.323c-0.683,0.411-1.093,1.643-1.503,3.83l2.187,1.502
	l3.008-3.142l3.828,4.237v0.271l0.821,7.519v0.137h-0.137l-2.188,10.393h-0.548c-3.143,0-5.193,0.137-6.014,0.682
	c0.138,0.686,1.506,1.777,3.831,3.283l1.91-0.273h0.411l0.137,0.135l4.512,4.377c1.776,1.505,1.64,4.1-0.683,7.927l0.683,4.239
	l1.776,0.41h6.975l-3.557,3.282l2.053,1.093l0,0l2.731,1.502l7.384,3.143l0.137,0.139h0.273l0.684,11.21
	c0.137,2.188,1.776,3.829,5.059,4.921l0.547-0.27h0.136h0.138l7.655,1.09h0.545v-0.135l0.139-0.275
	c0.82-1.502,1.367-2.595,1.367-2.867v-0.275c-0.138-1.229,0.409-2.324,1.503-3.145c1.094-0.821,1.777-1.642,2.187-2.599l0.138-0.136
	c0.41-1.092,1.776-1.365,4.101-0.685h0.134l0,0l2.6,1.505l8.611,1.641l5.332-0.408l3.83-1.643c0.682-0.955,1.229-1.365,1.639-1.639
	c0.686-0.137,1.639,0.137,2.734,1.092l0.546,0.272c0.547,0.409,0.957,1.231,1.504,2.736l2.736,2.05h2.049h0.136h0.273h0.136
	l2.873,1.232l5.331-0.412l3.007-0.957l7.793,0.685l3.419-0.958l3.963-1.64c0.819-0.548,1.778-0.959,3.146-1.368h7.517l2.734-0.959
	c1.092-0.682,2.051-1.09,2.87-1.09h4.375l2.048,1.503l5.881,1.229c0.82,0,1.639,0.685,3.007,1.914l2.461,1.641l0.272,0.273
	l5.605,0.139l0,0h0.138l2.597,1.365l3.417,0.685h0.138l2.871,0.407l0.82-1.641l-1.231-2.734l-0.546-2.732v-0.137h-0.138l0.41-0.409
	l1.917-2.596v-0.139l0,0h0.137v-0.138l1.912-1.365l0,0l-0.41-0.822l-0.819-2.734c0-0.408-0.411-0.684-1.231-1.232l0,0l-2.051-2.184
	l-2.599-2.188l-0.137-0.271l-0.272-0.141l0.136-0.134v-0.275l0.41-2.597v-1.913l-1.228-3.282l3.142-0.684l1.504-1.503h3.828
	l3.829-0.549h0.136l2.598,0.272l3.007-1.092l3.418-0.407l2.186-0.957h0.137l5.879-1.095l0.958-0.959l-0.274-1.092l-1.094-1.916
	v-0.135l-0.137-0.14V251.5l0.275-2.049l0.136-0.139v-2.869l-0.546-2.461l0,0v-0.139l1.366-2.734c0.547-1.229,1.23-1.91,2.051-1.91
	l3.554,0.273c0.548,0,1.231-0.273,1.916-0.822l5.33-7.246v-0.135l0.136-0.139l2.871-2.324l0.275-0.273
	c1.091-0.272,1.776-0.682,2.187-0.955l0.682-0.686c0.956-1.229,1.778-1.775,2.324-1.775l4.649,0.955l3.964-1.912l0,0h0.136l0,0
	h0.136l2.326-0.273l1.912-0.82v-3.146l0.546-3.963v-0.137l0,0v-0.136l0.685-1.095V214.453z"/>
<path fill="#803B40" d="M250.231,261.207L249,262.164c0,0.547,0.274,1.777,0.684,3.553v0.139l0.137,0.136h-0.137l-1.503,3.419
	l-2.051,0.822l-0.411,0.135h-0.137l-3.554-1.642h-0.135v-0.136l-6.701-6.151l-2.598-1.507l-4.101-1.504v-0.137l0,0h-0.137l0,0
	l-1.914-1.362l-3.419-1.095l-1.912,0.138h-0.138l-4.373-0.276h-0.136l-3.147-0.684h-1.914l-1.503,1.093
	c-0.819,0.409-1.914,0.55-3.281,0.824l-2.871,0.544l-2.46,0.818l-0.136,0.137v0.137v-0.137l-3.008,0.276l-3.146,1.228l0,0h-0.408
	l-2.598-0.271l-3.964,0.546h-3.282l-1.367,1.369h-0.136l-1.64,0.406l0.684,1.643v2.598l-0.411,2.325l2.325,1.912h0.138l0,0l0,0
	l1.913,2.188c1.23,0.955,1.778,1.637,1.778,2.459l0.682,2.051l0.957,2.053c-0.137,0-0.137,0.136-0.274,0.136l-2.597,1.912
	l-1.775,2.325l0.408,2.05l1.232,2.872l0.135,0.273l0,0v0.135l-0.272,1.094c-0.274,0.684-0.547,1.232-0.958,1.504
	c-0.821,0.686-2.188,0.686-4.375,0l-3.417-0.682h-0.137l0,0h-0.137l-2.462-1.231l-3.966-0.136l0.138,0.136l-0.409,6.836
	c-0.136,0.957-0.819,1.364-1.778,1.505c-0.409,0.135-0.685,0.682-0.546,1.775v0.139h-0.139l-0.272,1.775
	c0.957,0.82,1.64,1.506,1.916,2.052l0.683,3.28v1.231c-0.137,0.685-0.273,1.229-0.547,1.777l-0.958,2.732l-1.777,3.419v0.684
	l0.273,1.641l1.778,2.321c0.548,0.687,0.82,1.095,0.958,1.507l1.64,2.324l2.46,2.734c0.958,0.955,1.643,1.367,1.915,1.367
	l2.599-1.642c0.547-0.411,0.955-0.685,1.638-0.685c0.548,0,1.366,0.41,2.599,1.23l0,0h0.136v0.139l1.367,1.641l0.684,1.639
	l0.548,0.682l0.413,0.275l1.774,1.23l0.957,0.138c0.546,0.136,1.092,0.546,1.503,1.093c0.274,0.412,1.779,0.957,4.374,1.64h0.137
	l4.103,1.507h0.137h0.137l2.871,1.367l4.921,1.229l0.138,0.137l6.424,0.273l2.872-1.096h2.596v0.138l0.137,0.138l2.188,2.734l0,0
	v0.135l1.366,2.189l1.096,1.229l1.504,0.685l0.135,0.138l0,0l0.137,0.137l1.229,2.732v0.139h0.138v0.135l0.684,3.007l1.912,0.685
	h0.139h0.136l0,0l1.504,0.957l2.052-0.41l0.548-2.05v-0.136l0.135-0.137l2.322-2.324l2.599,0.681v0.274l1.231,2.734l2.599-0.953
	l0.271-2.602v-0.135v-0.14l0.137-0.136l1.778-0.955l-0.412-3.83v-0.271v-0.138l0,0l2.051-4.239l2.052-0.82l-0.819-3.826h2.05
	l-0.137-1.777L249,330.79l0,0v-0.272l0.274-2.599v-0.409l0.274-0.137l1.365-1.775l0.272-0.274h0.412l3.692,0.685h0.136l3.008,0.818
	l2.597-0.818l1.503,3.008l0.137,0.137v2.186l0.411,2.05c0.272,0.821,0.82,1.368,1.368,1.505h0.272
	c1.231,0.274,1.916,0.82,2.051,1.643c0.136,0.684,0.684,1.639,1.641,2.732l1.23,1.777l0,0v0.137l0.821,1.504l1.229-0.135
	l2.325-2.055l1.503,3.145l3.008,0.959h0.138l0.135,0.137l1.505,2.732l0.683,0.412l0.136-2.598v-0.138v-0.409l6.016-0.137
	l0.136-0.547c0.137-0.273,0.137-0.821-0.136-1.23c-0.41-0.82-0.548-1.504-0.685-2.461c-0.135-1.094,0-1.914,0.274-2.188
	c0.41-0.547,0.683-0.547,1.367-0.41l2.461,0.822l0.273-1.781l-4.512-2.049h-0.274l-0.137-0.273v-0.136v-0.138l-0.684-5.467
	l0.136-3.419v-0.409v-0.273l7.52,0.957l1.913-1.779c0.412-0.686,0.274-1.228,0-1.365c-1.913-0.687-2.871-1.504-2.871-2.324
	c0-0.412,0.137-0.955,0.819-1.23l3.146-3.145l3.417-0.137l1.778-3.008v-2.873l2.597-0.544c0.684-2.052,1.095-3.146,1.367-3.557
	l1.095-2.323l-1.914-3.418v-0.139l0,0v-0.135l-1.231-4.646v-0.136l-0.821-4.788l-1.639-2.73l-2.46-2.464v-0.136v-0.137l-0.137-0.137
	l-0.135-2.596l-4.513,1.365l-0.136-0.138l-2.052-2.321l-6.151-4.65h-0.137l-2.324-3.006l-1.503-0.959l-0.957,1.506v0.273
	l-0.137,0.136h-0.137h-0.272l-1.915,0.135l-0.272,0.138h-0.139l-4.508-4.92c-0.959-0.412-1.916-1.369-3.284-2.736l-2.049-1.501
	l-0.138-0.139l-2.323-1.366l-1.368,1.096l-0.137,0.271l-0.136-0.136h-0.137l-1.23-0.273l-1.367,0.684l-0.137,0.137l-0.135,0.137
	h-0.138l-1.912,0.273C255.563,264.352,252.964,262.848,250.231,261.207z"/>
<path fill="#413C4E" d="M258.297,328.332l-3.146-0.959l-3.28-0.408l-1.092,1.23l-0.273,2.322l0.137,0.136l0.956,3.556l0.137,2.735
	v0.819h-1.64l0.684,3.281l-2.598,0.957l-1.095,2.051l1.368,1.093l0.274,0.138l0,0l4.783,3.826l0.137,0.137h0.136v0.139v0.136
	l0.685,3.419l2.188,3.143c0.546,0.822,1.231,1.642,2.46,2.736h0.137l0.138,0.133v0.139l-0.138,0.273v3.008
	c0.411,0.82,0.548,2.598,0.548,5.194c1.23,1.779,1.778,3.007,1.778,3.829c0,0.545,0.408,1.64,1.092,3.145l0,0v0.136l0,0
	c0.273,1.914,0.137,3.554-0.273,4.922c-0.412,0.954,0.136,2.735,1.64,5.196l0.138,0.133l0.137,0.275l-0.137,0.274l-2.189,4.784
	c0.412,1.094,0.548,1.913,0.548,2.462l-0.548,4.51c-0.272,1.505-0.272,2.323,0.412,2.6l0.82,0.544
	c1.231,0.549,1.641,1.23,1.641,1.914l-0.137,2.326l0.683,0.271l0.138,0.137l0.41-0.408c0.411-0.412,0.82-0.959,0.957-1.643
	l0.272-0.409l0.138-0.274c0.547-0.271,0.82-0.684,1.229-1.23c0.137-0.819,0.137-1.641-0.135-2.596l-0.274-0.686l0.682-0.137
	c2.189-0.545,3.418-0.409,3.831,0.548l1.093,2.735v0.135v0.139l0.546,4.512l1.779,0.955h0.135h0.137l1.093,0.957l1.094-1.229
	l1.23-0.961h0.411c0.956,0.277,1.503,0.961,1.777,1.916l0.546,3.557l0.139,0.545l3.69,7.928l1.504,1.504l0.135,0.139v0.135
	l0.685,3.283l0,0l0.274,3.143l0.136,0.275c0.957-1.369,1.778-2.053,2.323-1.779c0.547,0.139,0.684,0.41,0.684,0.957v0.822v2.461
	v0.68c0.683,0.141,1.231,0,1.367-0.406l1.367-1.915l1.506-1.507c0.957-0.682,1.913-1.228,3.006-1.228h0.137l2.87,0.683l0.821-0.408
	l1.505-1.916l-0.275-3.008c-0.956-1.642-1.367-3.008-1.093-3.963l0.409-2.461v-0.275l0.137-0.271l0,0l2.598-1.505h0.139l0,0
	l1.91-1.231l2.189-3.144l0.273-2.323l-2.463-5.743l5.471,2.461v-2.322l0,0v-0.139l2.05-1.777l3.965-1.09h0.274l2.325,5.056v0.272
	l-0.273,1.914l0.273,1.776c0.273,0.821,0.82,1.233,1.229,1.233c0.547,0,1.094-0.412,1.642-1.096l0.135-0.271l0,0h0.138l3.281-1.095
	l0,0h0.137c1.778,0,2.598,0.411,3.007,1.229l0.273,3.692v0.135l0.685,0.139l1.365,0.412l2.053-0.142l3.417-0.953l2.051-1.779
	l0.137-1.504l-0.956-1.095l-3.554-1.229l0,0l-0.274-0.137l0,0v-0.137l-4.104-4.099l0.412-0.276l2.051-1.777l0.137-0.137l0,0
	l2.051-0.82l0,0h0.41l2.732,0.547h0.139l0.134,0.141v-1.096l-1.229-2.051l-1.913-0.957l-2.597-3.828l0,0l-0.139-0.139v-0.135
	l-1.229-4.51v-3.418l2.188-2.052h3.28l7.657,0.683l3.554-5.059v-0.272h0.272l2.871-1.503l1.504-3.009l0.137-0.138l3.418-2.871
	l1.641-3.006v-0.138h0.136v-0.134l0,0l1.368-1.369l1.641-2.732l0.547-4.242v-0.408l0.135-0.138l2.188-1.503l0.549-0.545
	l-3.283-0.547l-5.467,0.271l-0.137-0.135l-2.053-1.641h-0.273v-0.139l0,0l-1.091-1.641l-0.272,0.137l-0.139,0.274
	c-0.273,0.411-0.957,0.546-1.775,0.546l-0.822,0.409c-0.273,0.14-0.41,0.274-0.82,0.14c-0.272,0-0.409-0.408-0.684-1.095
	c-0.138-0.683-0.41-1.367-1.231-2.052l-0.136-0.137v-0.135h-0.137l-0.684-1.777h-0.547l-2.051,1.366l-0.136,0.137h-0.137
	l-4.786,0.958h-0.273l-0.273-0.138l-3.143-2.188l0,0l-0.139-0.135v-0.137h-0.135l-0.82-1.643l-2.325,2.461
	c-1.64,1.916-2.871,2.463-3.69,1.916l-3.146-1.641l-2.187-0.275l-0.273,0.137l-2.051-1.502l-0.135-0.137l-0.41-0.137l0.957-3.691
	v-1.23l-1.23-0.549h-0.138l-2.87-3.141l0.135-2.324l-7.107-0.684l-2.736-1.506c-0.682-0.412-1.229-1.232-1.641-2.596l-0.407-0.959
	l-0.546-2.049l-0.96,0.135l-2.187,1.777l-2.598,3.144l0.546,2.327l0.819,3.007v0.136h0.139l-0.139,0.137v0.139
	c-0.272,0.817-1.092,1.229-2.323,1.229h-2.732l-1.642-0.819l-2.05,0.819l-0.411,0.138l-0.274-0.138l-0.273,1.915l-0.135,0.274v0.408
	h-0.412l-3.418-1.094c0,1.094,0.138,1.914,0.685,2.871c0.41,0.957,0.548,1.641,0.137,2.461l-0.41,1.092
	c-0.413,0.41-1.642,0.547-3.418,0.41h-2.323l-0.139,3.83l-3.006-1.094h-0.137l-0.137-0.14l-1.506-2.868l-3.278-1.094l-0.821-1.777
	l-1.229,0.955h-0.139l-2.051,0.412h-0.545l-1.095-2.461l-1.092-1.504l-0.137-0.139c-1.094-1.366-1.639-2.596-1.915-3.278
	c0-0.14-0.272-0.409-0.956-0.548l-0.547-0.137c-0.958-0.408-1.64-1.232-2.051-2.461l-0.548-2.322v-1.916l-0.956-1.777l-1.638,0.549
	h-0.139h-0.135H258.297z"/>
<path fill="#293C54" d="M74.015,283.627v0.137c-0.548,1.232-1.505,2.052-2.599,3.007c-0.82,0.409-1.094,1.095-1.094,1.915v0.412
	c0,0.682-0.41,1.773-1.503,3.414l-0.138,0.686c-0.273,0.41-0.82,0.683-1.775,0.683l-7.792-0.957v0.137l-0.546,1.779v0.136
	l-0.139,0.136l0,0c-2.05,2.872-3.418,4.921-3.554,6.29c-0.138,0.684,0.684,3.144,2.46,7.379l1.232,2.873
	c0.546,1.369,0.135,3.01-1.096,4.785l-2.462,2.461h-4.1l-0.82-4.512l-1.093,5.604l1.777,2.733c0.137,0.408,0.137,0.683,0,0.821
	l-0.274,0.272c-0.545,0.41-1.366,1.779-2.186,4.101c-0.822,2.052-0.412,4.103,1.229,6.29h3.281c1.093,0.273,2.735,2.051,5.06,5.195
	l0.136,0.274l0,0c0,0.955,0.41,1.64,1.095,2.187l7.244,6.699v0.134l3.282,4.101h1.913l2.053-3.689l0.272-0.271l0.137-0.14
	l5.059,1.233v0.135v0.273l0.683,3.418l6.013,6.972l2.052,0.821l0.137,0.137l0.956,0.546l0.138,0.138l4.51,6.699l3.693-0.548h0.273
	h0.136l0.273,0.274l0.137,0.273l3.143,6.562l3.83,2.323l3.143,0.82l1.502,4.24h2.324l0.137,0.133l0,0l4.921,2.736v0.137l0,0
	l0.137,0.137l3.556,4.375l5.193-0.957h0.274l1.914,0.82h0.138l3.28,2.873l5.879,0.409l3.552-0.55l0,0
	c4.787-0.818,7.795-0.407,8.888,0.82c0.684,1.094,0.273,2.188-1.367,3.559l-1.368,1.363c-0.408,0.684,0.137,1.777,1.915,3.418
	l0.135,0.274h-0.135l1.093,0.817l0.41-0.408c3.418-6.426,6.152-9.98,8.065-10.662c2.051-0.684,6.287,1.094,12.988,5.197l8.203,1.501
	l-0.137,0.272v0.273l-0.411,3.826l4.101,0.549l-0.136,5.195c1.23,2.324,2.187,3.691,2.734,4.102c0.819,0.549,4.921,0.549,12.167,0
	l4.238-2.188l4.101-5.741l4.784-0.138l2.324-0.685l9.025-5.194h0.136l0.136-0.137l0,0c5.196-0.547,8.203-0.682,9.022,0l5.88,4.922
	l1.775,0.684l0.275,0.273l2.324,0.957l0.137,0.138v-0.409v-0.137v-0.141v-0.134l0.956-4.101c-0.41-1.231-0.41-2.188,0-3.009
	c0.273-0.681,0.957-1.093,2.051-1.368c2.051-0.408,3.965,1.368,5.876,5.197l0.275,0.133h0.137l3.418-1.502
	c0.683-0.135,0.957-0.817,0.957-1.504l-0.683-2.459v-0.139c-0.274-1.095,0-2.05,1.094-2.461l1.231-0.957l3.004-3.277l2.052-4.514
	c-1.777-2.871-2.324-4.922-1.777-6.289l0.409-3.828c-0.819-1.637-1.229-2.734-1.229-3.693c0-0.407-0.546-1.637-1.639-3.279h-0.137
	v-0.41l-0.411-4.922c-0.136-0.817-0.272-1.914,0-3.279c-1.231-0.957-2.051-1.913-2.597-2.87l-2.052-2.736l-0.137-0.136v-0.271
	v-0.139l-0.682-3.418l-2.051-1.641v0.139l-3.965-3.145v0.271l0.546,4.24v0.135v0.409l-2.051,0.959l-0.272,2.596v0.411l-4.784,1.912
	l-1.641-3.824l-0.959-0.274l-1.501,1.503l-0.956,2.734l-3.419,0.959l-1.914-1.369l-2.734-0.82l-0.821-3.827l-1.092-2.325
	l-1.642-0.684l-0.138-0.272l-1.229-1.505l0,0l-1.229-2.186l-1.914-2.461h-1.642l-2.734,0.957l-0.138,0.137l-6.971-0.41l-5.332-1.094
	c-0.409-0.273-1.367-0.686-2.871-1.639l-4.099-1.367c-3.146-0.822-4.923-1.507-5.334-2.326l-0.684-0.408l-0.956-0.275l-2.46-1.367
	l-0.272-0.137c-0.411-0.545-0.819-0.955-1.094-1.503l-0.546-1.231l-1.094-1.639l-1.778-0.821l-0.683,0.409l-0.684,0.548
	l-0.409,0.271c-0.683,0.548-1.367,0.82-1.915,0.959c-1.094,0.273-2.186-0.274-3.418-1.639l-2.596-2.736
	c-0.957-1.229-1.639-2.188-1.915-2.871l-0.685-1.094c-0.956-0.958-1.641-1.911-2.051-2.733c-0.408-1.229-0.547-2.325-0.135-3.417
	v-0.137l0,0l1.778-3.008l0.955-3.145l0.413-2.05l-0.685-3.144l-2.051-1.779l0.409-2.598c0-1.916,0.684-2.871,2.051-3.141
	c0.411-0.14,0.683-0.414,0.548-0.96v-0.137l0.135-2.735v-0.135l0,0v-3.145h-0.272l-0.135-0.138l0,0l0,0l-0.548-0.274v-0.137h-0.137
	l-2.461-1.639l0,0h-0.137l-1.915-1.642l-6.424-1.229l0,0l-2.048-1.503H151.8c-0.547,0-1.23,0.409-2.188,0.955h-0.135l-3.008,1.097
	h-7.52c-1.092,0.271-2.051,0.545-2.598,1.092c-0.821,0.684-2.324,1.23-4.375,1.914l-3.554,0.82v0.135h-0.274l-5.059-0.544
	l-0.408-0.138l0.137,0.138l-0.137-0.138l-1.777-0.135l-3.008,0.953l-6.014,0.548h-0.137l-0.136-0.136l-3.009-1.093h-2.459
	c-1.093-0.272-2.325-1.095-3.692-2.736l-0.137-0.272c-0.274-1.23-0.683-1.777-0.819-2.051l-0.685-0.409l-1.227-0.685l-1.096,1.094
	l-0.137,0.273l-4.375,1.777h-0.136h-0.274l-5.331,0.547c-0.82,0-2.323-0.41-4.374-0.955l-4.649-0.822h-0.135l0,0l-2.735-1.504
	H74.015z"/>
<path fill="#803B40" d="M244.077,453.829l-0.546,1.777c0.82,0,1.915-0.548,3.009-1.368l0.134-0.137h0.273l5.47-0.684l3.554-1.777
	l1.368,1.914l0.274,0.137l-1.642,2.598l1.914,1.914v0.138v0.407l-1.368,5.744l3.555,2.598l6.427,0.272l-0.958,1.231
	c-4.103,5.058-6.016,8.066-5.88,9.021l2.462,0.548c3.28,0.274,5.194,1.231,5.877,2.46c0.819,1.643,1.642,3.281,2.325,5.193
	l3.691,2.052l2.324,0.413l4.784-4.104l2.461,3.69v0.137l0,0l0.138,0.138l0.819,3.417l2.051,0.409l0,0l3.147,1.094l0.819-0.271
	v-0.137l-0.547-3.555l-0.137-0.135l-1.777-8.068v-0.273l1.095-5.605l0.273,0.137h0.409l3.69,0.272l4.648-3.417l0.413,0.273
	c2.459,1.916,4.1,3.418,4.919,4.51c0.82-0.27,2.325-1.775,4.376-4.097l0.137-0.138l0.272-0.275l6.835,1.777l3.009-2.459l0.138-0.139
	l0.135-0.137h0.137l0.136,0.137l2.874,0.547l9.296-8.201l2.87,0.819l0,0l0.137,0.138l0.135,0.137l0.139,0.137l0.684,1.229
	l0.684-0.817h0.137v-0.14h0.137l2.734-1.502l2.049-1.915l-0.547-4.237l-0.409-0.547l-2.595,1.094l0,0
	c-0.822,0.273-1.506,0.545-2.464,0.545h-3.008c-0.957-0.137-1.503-0.407-1.911-0.955l-0.275-4.375
	c-0.957-0.546-1.367-0.82-1.778-0.82l-0.683,0.274l-0.957,0.546l-1.913,0.411h-0.548l-0.135-0.274l-1.094-1.914l-0.139-1.777l0,0
	l1.094-5.195l0,0h0.139v-0.135l1.229-2.598l-3.827-3.419l-0.138-0.136l-0.136-0.135v-3.967l0.136-0.137l2.189-6.287l-1.368-3.418
	l-1.23-0.274l-1.506,0.136l-1.503,2.324l-1.914-1.367l-1.912-1.093l-1.506-3.827l0,0l0,0l-0.545-2.732v-0.275l-0.139-0.135
	l0.411-0.276l1.778-2.46l0.409-0.273l0,0h0.137l1.366-0.275l1.504-0.408l7.11-0.273h0.137l0.956,0.41l0.271,0.139l1.096,0.408
	l1.914-0.821l1.641-1.231l0.822-1.368l0.136-0.683l-0.136-3.007l-1.506-0.272l-2.871,0.959c-0.821,0.957-1.777,1.639-2.734,1.639
	c-0.955,0-1.777-0.822-2.597-2.325l0,0h-0.137v-0.136l-0.137-1.914v-0.273l0.137-1.777l-1.505-3.691l-2.871,0.822l-1.23,1.094
	l0.41,4.101l-4.512-2.05l1.095,2.461l0.136,0.133v0.276l-0.409,2.732v0.274h-0.138l-2.598,3.691l0,0l-4.237,2.598l-0.408,2.46
	c-0.138,0.409,0.408,1.503,1.092,2.87l0.138,0.137v0.139l0.273,3.553v0.41l-0.135,0.14l-1.644,2.183l0,0l-0.136,0.141h-0.137
	l-1.23,0.82h-0.137h-0.137h-0.137h-0.138l-3.141-0.686c-0.547,0-1.232,0.275-1.916,0.82l-1.368,1.504l-1.095,1.367
	c-0.683,1.229-1.639,1.502-3.143,1.229c-0.958-0.133-1.229-1.093-0.958-2.322v-0.957l-0.135-0.955l-0.547,0.682
	c-0.409,0.55-0.819,0.683-1.367,0.683c-0.547-0.133-0.957-0.683-1.231-1.64v-0.135l-0.272-3.146l-0.685-3.006l-1.368-1.367l0,0
	l-0.135-0.139l-2.869-6.561l-0.139-0.137l-0.821-1.915v-0.136h-0.136v-0.137l-0.547-3.553l-0.409-0.547l-0.546,0.408
	c-0.958,1.096-1.642,1.777-1.915,1.777c-0.412,0-1.094-0.548-2.188-1.368l-2.049-0.957l-0.273-0.136l-0.138-0.137v-0.137
	l-0.137-0.271l-0.135-2.736l0,0l-0.413-2.051l-1.092-2.734h-1.095c0.136,1.095,0,2.053-0.273,2.734
	c-0.273,0.82-0.82,1.367-1.641,2.051c-0.272,0.959-0.683,1.642-1.23,2.186c-0.82,0.822-1.504,0.822-2.324,0.276l-0.41-0.138
	c-0.821-0.271-0.957-1.23-0.821-3.008v-0.684l-1.775-1.092c-0.685-0.273-1.095-1.094-1.232-2.326l0.684-6.149l-0.273-0.959
	l-2.188,2.462l-1.502,1.094l-0.411,0.954c0.546,1.235,0.821,2.19,0.821,2.872c0,1.369-0.683,2.461-1.913,2.873l-2.463,0.955
	l-0.682,0.408l-0.138,0.96v3.827c0.138,1.23,0.273,1.912,0.684,1.912c0.819,0.412,1.778,0.412,2.599-0.271l0.82-0.411l2.599,6.016
	v0.137l0,0v0.273c-0.958,10.799-1.916,16.949-3.147,18.592c-0.546,0.546-0.956,0.816-1.776,0.957c-0.958,0-1.641-0.141-2.598-0.686
	c-3.552,7.109-5.879,10.801-6.971,11.348h0.135c-0.548,0.137-0.82,1.914-0.683,5.058l0.82,0.685l0.273,0.276l0.274,0.271
	L244.077,453.829z"/>
<path fill="#6C3B45" d="M364.518,391.354l-0.955-0.409l-1.094,0.683l-0.684,1.229c-0.547,1.23-1.094,1.916-2.052,1.916
	c-0.546,0-1.229-0.41-1.641-0.822l-0.138-0.135l-0.135-0.136l0,0l-0.412-1.368v-0.138l-0.137-1.776l-0.819-0.137l-0.138,0.137
	l-0.41,1.366v1.916l-0.135,0.136l-0.137,0.135l-1.641,2.188l-0.273,0.275h-0.273l-3.281-0.275h-0.273v0.136l0,0v0.14l-1.093,1.504
	l0.408,0.955h0.138l-0.957,1.504h-3.007v-0.544l-0.273-0.276l-0.411-0.273l-0.547,0.958l-0.136,0.409h-2.051l-0.138-0.135
	l-1.23-0.959l-0.135-0.273v-0.137h-0.139v-0.273l-2.187-0.408l-1.64,0.682l-0.957,0.687l2.734,3.142l3.553,1.094l0.138,0.137l0,0
	l0.137,0.138l1.778,1.64l-0.684,2.736l0,0v0.408h-0.138l-2.324,1.914v0.135h-0.138l-3.828,1.096h-0.135l-2.189,0.272l0,0h-0.135l0,0
	h-0.137l-1.506-0.548l-0.818-0.137l-0.821,1.369h-0.135v0.136l-1.778,1.229h-0.137l0,0l-2.461,1.094h-0.137l-2.871-0.957
	l-6.289,0.275l-1.366,0.41l-0.138,0.137h-1.229l-1.505,2.053l0.272,2.32l1.368,3.145l1.503,0.822h0.139v0.137l0.545,0.41
	l0.957-1.369l0.137-0.137l0.137-0.137h0.138l2.051-0.271h0.273v0.137l2.052,0.546l2.049,4.649h-0.137v0.135l-0.82,2.6l0,0
	l-0.685,1.64v0.138l-0.954,2.32v2.871l1.639,1.643h0.137l2.188,1.914l0.273,0.136l0.137,0.136l-1.641,3.83l-0.41,1.774l0.547-0.272
	h0.137l1.367-0.547l2.462-1.366h0.136l2.734,0.411h0.137l0,0l4.101,1.639h4.513l1.229-1.639l0.137-0.137l0.138-0.137l2.323-1.095
	l2.189-1.913l0.273-0.139l0,0l1.639-0.546l1.777-1.368l2.051-2.73l2.87,1.094l0.411,0.135v0.136l0.137,0.138
	c0.408,1.094,0.819,1.64,1.23,1.779l1.776-0.277h0.411l0.955,0.277h0.138v0.135l2.325,0.818h0.682l0.137-0.545l0.275-0.82v-0.139
	l0.136-0.135l0.138-0.139v-0.134l0.818-0.55l0.136-0.133l1.505-1.234h0.139l0.135-0.135h0.272l1.368,0.135
	c0-0.817,0.412-1.64,1.232-2.459c0.957-0.684,1.639-1.093,2.05-0.957l0.819-0.545h0.137v-0.139l0.684-0.686v-0.135h0.138
	l0.135-0.139h0.138l2.188-0.545h1.23l0.548-0.408l0.409-0.822l0,0l0.685-1.369l-0.274-0.135c-0.819-0.955-1.367-2.053-1.639-3.555
	l-0.139-0.137l0,0h0.139v-0.135l0.545-3.009c0-0.957,0.274-1.642,0.958-2.325l-0.274-2.457c-0.137-0.275-0.409-0.55-1.094-0.687
	l-4.375,1.777l0.273-4.511c0.137-0.684,1.503-1.914,4.102-3.421l-1.23-4.782c-0.272-1.64,0.137-2.873,1.23-3.963l-0.273-0.82h-1.367
	l-0.41,0.137l-0.684,1.914c-0.547,0.682-1.096,1.093-1.641,1.093h-0.273l-1.367-0.96h-0.135h-0.138v-0.133v-0.275l-0.41-0.955
	l-0.137-1.369v-0.135l-0.136,0.272l-0.139,0.411h-2.459l-0.274-0.549l-0.411-1.504v-2.049l-1.502-2.599v-2.187L364.518,391.354z"/>
<path fill="#413C4E" d="M392.271,426.76l0.138,0.136l0.271,0.272l-1.777,2.736c-0.684,0.82-1.641,1.367-2.734,1.367h-0.273
	l-1.365-0.821l-1.367,0.14l-2.736,2.049c-0.682,0.275-1.502-0.409-2.732-2.049l-0.818,1.777h-0.137l0,0l-0.138,0.133l0,0
	l-0.958,0.959h-1.777l-1.777,0.548l-2.187,1.64h-0.683l-0.82,0.547c-0.686,0.682-0.957,1.23-0.547,1.776l0.955,1.366l-3.827-0.41
	l-2.051,1.643l-0.274,0.683v0.136l-0.41,1.097l-0.137,0.134l-0.137,0.139h-1.912l-2.461-0.959l-0.821-0.135l-1.913,0.273
	c-0.822,0-1.778-0.957-2.598-2.46l-1.641-0.683l-1.367,2.049l0,0h-0.137l-1.915,1.642h-0.136v0.134h-0.272l-1.503,0.409
	l-2.188,1.917l0,0l-2.325,1.092l-1.639,2.188h-5.469l0,0l-4.239-1.638l-2.323-0.276l-2.051,1.094h-0.137l0,0l-1.368,0.547
	c-0.683,0.273-1.229,0.686-1.639,0.822l-0.274,0.684v1.638l0.684,1.097l3.28-1.097c0.685,0,1.642,0.411,2.873,1.097l0.274,0.135
	l0.136,0.137l0.135,4.648l0.685,0.137h2.87l1.778-0.41l0.273-0.272c1.094-0.548,2.051-0.957,3.28-1.093l0.548-0.139l0.272,0.41
	l0.819,1.642v0.136l0.411,4.512v0.41l-2.461,2.598h-0.137v0.135l-2.87,1.369l-0.957,1.094l0.409,0.82l5.878,0.545l0.138,0.138l0,0
	l0.137,0.138l2.324,1.365l5.194-0.135v0.682l0.273,2.6v0.271h0.137l-2.324,2.326c-0.273,3.008,0.273,4.785,1.503,5.193l4.376,2.324
	l3.418,2.323l2.871-1.366l0.272-0.138l0.274-0.136l0.136,0.136l4.375,3.281l0.684,0.276l1.093-1.369l0.274-0.273l0.137-0.139h0.138
	h0.135l2.599,0.412l0.547-4.512l3.28,5.881l2.734,0.135l0.41,0.135h0.273v0.276v1.775l1.094-0.272l4.511-6.017l1.915,2.874v-0.96
	l0,0v-0.135v-0.138l1.367-2.732l1.229-2.051h3.417l0.547-3.828h0.412l0.272,0.135l2.599,0.412l0.271-1.367l-0.955-2.188v-0.275
	l0.547-1.502v-0.275l0.137-0.137h0.135v-0.137l7.109-3.825l-0.273-3.692l0,0v-0.137l1.366-2.734l0.274-0.548l0,0l2.188-5.058
	l0.136-0.137l0,0l1.775-1.777l1.096-2.048v-0.276l0,0l0.958-1.641l-0.821-2.051v-0.137h-0.137v-2.187h-1.096l-2.051,0.956
	c-0.955,0.684-2.323,0.41-4.1-0.684c-0.684-0.547-0.684-1.914-0.273-3.962l-1.094-0.138l-0.547,0.682
	c-1.229,1.368-2.188,2.188-2.461,2.188s-0.41,0-0.684-0.138c-0.135-0.408-0.41-1.094-0.41-2.185c0-1.232,0-2.05,0.41-2.327
	c0.273-0.408,0.547-0.547,0.819-0.273l2.599-4.783l0.685-1.777l0.41-2.051l-1.505-1.23c-0.41-0.411-0.546-1.366-0.273-2.736v-0.818
	c0-0.41-0.272-0.957-0.819-1.364h-0.274l-0.139,0.407c-0.408,1.094-1.365,1.639-2.869,1.23
	C394.048,426.486,393.228,426.486,392.271,426.76L392.271,426.76z"/>
<path fill="#803B40" d="M384.068,363.328l-0.957-2.186l-1.504-2.191l-1.643-0.407h-0.137v-0.138h-0.135l-1.367-0.683l0,0h-0.271
	l-0.548,0.136l-1.778,0.271h-0.137l-0.272-0.135l-1.778-0.686v-0.137h-0.138v-0.135l0,0l-1.365-1.367l-1.504-1.502l-1.367-0.818
	l-1.505,1.363l-1.914,1.367l-0.545,4.102v0.138l0,0l-1.779,3.007v0.273h-0.137l-1.365,1.367l-1.641,3.143l0,0l-0.138,0.274
	c-1.229,0.959-2.323,1.914-3.418,2.734l-1.368,2.464c-0.272,0.68-1.365,1.5-3.416,2.322l-1.367,2.322l0,0l-2.324,3.146h-0.137v0.133
	h-0.273l-10.936-0.682l-1.23,1.23v2.326l1.092,4.51l2.328,3.28l1.91,1.097v0.135h0.139l0,0c1.092,1.367,1.639,2.321,1.639,3.008
	v1.776l-0.683,0.683l0.411,0.273h0.546l0.821-1.637h0.271l2.188,0.681l0.139,0.683h1.092l0,0l-0.271-0.817l-0.139-0.276l1.504-2.325
	c0.273-0.681,0.957-0.955,1.914-0.681l2.461,0.135l1.369-1.777v-1.641l0.546-1.777v-0.135l0.135-0.139l0.137-0.135l0.958-0.549
	v-0.137h0.135l0.138,0.137l2.052,0.275v0.273l0.41,1.642v0.818l0.273,1.229l0.546,0.137l0.685-0.956v-0.136l1.094-1.504l0.138-0.273
	l1.501-0.684h0.137l0.137-0.139l1.779,0.548h0.135l0.274,0.138l0.956,1.914v1.912l1.369,2.598l0,0v0.273v1.916l0.41,0.818h0.409
	l0.548-0.684l0.137-0.273l1.639,0.957h0.139h0.135v0.276v0.135l0.548,2.323l0.683,0.41l0.137-0.273l0.683-1.777v-0.135l0.138-0.274
	h0.135h0.139l0.957-0.55h0.137v-0.135h1.23l-0.273-0.684v-0.273l-0.684-6.425l-2.598-4.237l-4.922-5.742l-0.137-0.137l-0.271-3.69
	l-1.642-2.872v-0.135l-0.138-0.139l0,0l0.138-0.273l0.821-3.553h0.271h0.274l8.612-0.547l4.648-2.462l0,0l0.136-0.138
	c1.642-0.545,2.735-1.229,3.007-1.914C383.794,365.652,384.068,364.693,384.068,363.328z"/>
<path fill="#6C3B45" d="M354.131,280.211l-0.822-0.139l-1.367,8.341l2.324,2.734l2.187,0.957l0,0h0.136l0.138,0.136l2.872,2.324
	l3.965,0.957h0.136l2.05,1.367h0.138l0,0v0.271l1.503,2.188l0.273,0.272l-0.137,0.273l-1.367,2.189
	c-0.272,0.273-0.272,0.957-0.272,2.051h0.136v2.596l-0.136,0.137l0,0l-1.231,4.103l-0.137,0.683h-0.273l-0.408-0.139l-1.777-0.408
	l-2.325,0.137l-2.05,0.685l-2.326,1.913l-0.544,0.547l3.007,1.502l-0.272,0.549c-0.14,0.684-0.822,1.367-1.915,1.776l-1.914,0.138
	l-3.145-1.23l0,0l0,0l-2.871-1.642h-1.229l-3.419,4.923l-0.685,1.639v2.873l1.367,2.324v0.135l0,0l0,0l0.822,2.188v0.274
	l0.135,3.144v0.409l0.137,0.274l-2.188,0.41h-4.1l-1.914,1.232l-0.82,1.363l0.136,0.137l0.819,4.102h0.139v1.645l0.957,1.912
	l2.87,1.914l4.239-0.957l2.049-1.367l0.275-0.139h1.911l1.094,2.598c0.685,0.686,1.231,1.369,1.505,2.187l0.959-0.134h0.271h0.273
	l0.137-0.275l1.912-1.503l1.777,3.146l1.916,1.229h2.734l2.051-0.271h0.408l4.923,0.682h0.138v0.137l2.049,1.232l0,0l0,0v0.137
	l1.777,1.365v0.137l1.229,1.368l1.368,0.546l2.188-0.274v-2.866l-1.094-1.917h-0.135v-0.139l-0.822-3.553l1.914-1.913l0.137-0.139
	h0.139l1.639-0.271h1.777l0.547-0.684l-1.094-1.505l-3.965-2.598l-0.956-1.505l-0.138-0.137l-0.137-0.136l0.137-0.271l1.094-2.051
	l0.273,0.27l2.732,0.686l7.247-0.271l0.137,0.134h0.137l2.05,0.685l1.367-1.232l-0.684-4.235l-2.596-1.644
	c-2.187-1.227-2.871-4.236-2.461-9.159l-2.188-1.093l-0.273-0.135h-0.275v-0.275v-0.135l-0.408-3.555l3.008-13.945
	c-1.231-4.1-1.914-6.834-1.914-8.201l-0.274-4.103l0.274-4.51v-0.276l0.271-0.271l0,0l2.736-2.051v-2.188
	c0-0.546-0.273-1.365-0.957-2.458l-1.779-1.919h-0.271v-0.408l-0.274-3.279v-0.137l-0.136-0.137l0.273-0.139v-0.135l3.555-4.511
	v-1.916l-1.093-2.05v-0.139l-0.14-0.27l1.777-2.188v-0.139h0.138l1.914-1.503l-0.274-1.775h-0.957l-1.502-0.274l-0.82,3.277
	l-0.41-0.135l-3.555-1.369l-2.188-0.408l0.821,3.419l-3.008,0.957l-4.375,2.321l-1.366,1.777l0,0v0.137h-0.138l-2.323,2.052
	l-0.409,3.282v0.272l-1.232,4.651h0.137l-0.546,2.184v0.139l0,0l-0.139,0.136l-1.503,2.052h-0.135v0.133l-0.137,0.137h-0.138
	l-3.279,0.411l0,0v0.138l-0.138-0.138l0,0l-4.924-1.64l-0.136-0.134L354.131,280.211z"/>
<path fill="#A03735" d="M417.973,243.436l0.547-0.687l-0.959-2.185l-0.956-1.092l-1.095,1.775v0.135l0,0l0,0l-1.776,2.053l0,0
	l-0.138,0.136h-0.273l-3.279,0.957h-0.274l-3.144-0.546l-1.777,0.546l-0.412,1.505l0,0l-0.135,0.274l-1.502,0.956l-0.273,0.137
	h-0.273l-2.736-0.272l-0.136,0.272v2.734l-0.138,0.135l-1.504,1.914l0,0v0.137H397.6l-2.597,2.598h-0.136l-0.137,0.135l-2.733,0.548
	l-1.778,1.913l0.41,2.326v0.547l-0.41,0.137l-2.051,1.915l-1.094,1.364l0.82,1.779v0.135v0.139v2.596l0,0v0.139l-1.502,2.188v0.137
	l-2.051,2.323l0.272,2.734l1.778,1.64v0.138l0,0c0.819,1.368,1.23,2.462,1.23,3.418v3.007h-0.138l-0.137,0.137l-2.734,2.051
	l-0.272,4.102l0.272,4.102c0,1.367,0.548,3.965,1.915,7.793v0.135v0.273l-3.008,13.947l0.272,2.732l2.052,0.957l3.28-3.281l0,0
	h0.136l10.527-4.1l2.736-2.463l0.273-0.273l0.134,0.137h0.274l6.015,0.548c0.821,0,2.597-0.685,5.194-1.777v-2.872l0.137-0.137
	h0.136l1.644-1.503l-0.412-1.779v-0.136v-0.137v-0.271l0.137-0.137c0.548-0.547,0.548-1.097,0.139-1.506
	c-0.411-0.82-0.275-1.916,0.409-3.141l0.685-0.96l0,0l-0.137-1.912l-2.051-2.462c-0.959-0.686-1.096-1.642-0.549-2.598
	c0.274-0.82,0.684-1.639,1.367-2.322l0.549-2.324l0,0l0,0l1.504-3.281l0.41-1.504l2.186-4.104l-1.5-2.598l-4.241-2.596h-0.274
	v-0.273l0,0l-0.819-2.189v-0.135v-0.275l0.409-3.689l0,0v-0.136l0.959-2.734c-0.137-0.958,0-1.642,0.408-2.19
	c0.274-0.271,0.686-0.547,1.095-0.547l2.597-0.408l0.684-1.502l0.684-4.514l-0.548-1.64l-2.321-0.546h-0.139l0,0l-2.733-1.367
	l-0.139-0.139v-0.273l-0.136-0.137l-0.137-3.279v-0.273v-0.408L417.973,243.436z"/>
<path fill="#A03735" d="M425.218,389.029l0.136-0.137h-0.273v-0.275l-1.094-2.049l-0.137-0.138v-0.272l0.274-3.282
	c0-0.409-0.411-0.819-1.231-1.368h-0.821l-1.366,1.641h-0.137l0,0l-3.416,1.645l-0.548-2.326v-0.273l0.272-1.095l-0.272-1.368
	l-0.409-0.134l-0.547,1.093h-0.139v0.137l-4.238,3.691l-0.137,0.275h-0.137h-0.271h-0.273l-1.231-0.549l-0.136-0.135l-1.367-1.233
	l-2.188-0.819l0,0l-0.136-0.136l-1.367-0.957l-4.513-0.958l0,0h-0.136l-3.009-1.502v0.135l-2.323-1.09l-3.007-0.275l-1.095,0.136
	l0.956,5.058h-0.41l-3.007,0.273h-1.64h-0.137l0,0l-1.641-1.092l-2.735,1.228l-2.458,3.282l-2.188,5.879l0.683,6.426l0.956,3.688
	c0.137,0.413,0.137,0.549,0,0.686l-0.41,0.137c-0.684,0.408-0.957,1.368-0.82,2.736l1.367,5.604l-0.408,0.272
	c-2.463,1.368-3.694,2.462-3.831,3.007l-0.272,1.916l2.324-0.957l0.137-0.137h0.137c1.642,0,2.598,0.545,2.733,1.914l0.411,3.008
	l-0.137,0.408l-0.274,0.275c-0.407,0.409-0.682,0.818-0.682,1.366l-0.41,3.144c0.136,1.094,0.548,1.916,1.092,2.326l2.872,3.416
	l2.598-2.051l2.049-0.273h0.141l0.133,0.273l1.367,0.409c0.41,0,0.82-0.133,1.23-0.548l1.23-1.777l-0.273-1.09
	c0.273-0.412,0.684-0.686,1.23-0.959h3.283c0.545,0.273,0.955,0.139,0.955-0.134c0.41-0.959,0.819-1.37,1.23-1.642
	c0.41,0,1.094,0.134,1.504,0.547c0.957,0.82,1.641,1.502,1.641,2.459l-0.272,2.461l0.546,0.408c0.82,0.686,1.367,1.369,1.367,1.916
	l-0.547,2.461c-0.41,1.367-0.82,2.324-1.366,2.598v-0.137l-2.052,4.375l0.684,0.273l3.281,0.137l0.686,0.272l-0.273,0.546
	c-0.412,1.369-0.547,2.324-0.412,3.009c1.094,0.683,1.776,1.097,2.188,0.683l1.914-0.82l0.956-0.408h1.778l1.777-1.912v-2.326
	c-0.137-0.82,0-1.367,0.271-1.775c0.548-0.412,1.64-0.412,3.283,0.547l3.279,2.049c1.095,0.82,1.914,1.094,2.46,1.094v-0.139
	c0.274-0.546,0-1.641-0.683-3.004l-1.777-2.736v-0.274h0.139l0.135-0.274c1.777-2.458,3.689-3.278,5.879-2.458l5.059,2.323
	l2.051-1.366h0.137v-0.138v-0.137l-0.274-0.273l0.138-0.137l0.137-0.272c1.641-2.733,2.186-4.784,1.641-5.882
	c-0.412-0.953-1.094-1.365-1.641-1.365h-0.41l-0.274-1.365h0.274c0.957-0.41,1.504-0.823,1.639-1.369l-0.41-0.683l-2.186-2.05l0,0
	v-0.139l-1.094-3.004c-0.411-2.326-0.685-4.377-0.411-6.289v-1.369l-1.364,1.228l-1.232,1.368l-0.41-5.738l0,0v-0.274h0.138
	c3.007-4.375,5.057-6.974,5.741-7.655l-1.367-4.102c-0.411-2.051-0.686-3.281-0.686-3.828l-2.457-1.096L425.218,389.029z"/>
<path fill="#C13531" d="M377.643,338.311l-0.136,0.546l0.684,0.822l3.554,2.46l0,0v0.136h0.135l2.189,2.462l-0.274,0.271
	l-1.368,1.641l-0.134,0.138l-0.138,0.272h-2.326l-1.365,0.139l-0.956,0.956l0.409,1.231v0.136l0.139,1.368l1.228,1.775v0.135v3.828
	l1.094,0.412l1.916,0.547h0.134l0,0l0.139,0.138l0.137,0.136l1.777,2.462v0.138l0,0l0.958,2.457v0.14l0,0v1.638
	c-0.14,0.959-0.411,1.779-0.685,2.326c-0.684,0.957-1.915,1.777-3.828,2.598l-4.648,2.732h-0.137l-8.477,0.548l-0.546,2.05
	l1.505,2.736v0.135v0.137l0.409,3.553l4.646,5.471h0.139l0,0v0.137l1.914,3.145l0.137-0.408v-0.141l1.505-4.235l0,0l0.137-0.138l0,0
	l2.733-3.555l0.136-0.135l3.418-1.643h0.274l2.188,1.369l2.87-0.276l-0.958-4.782l0.547-0.139l2.598-0.271l2.735,0.135h0.274v0.137
	l5.467,2.461l4.646,0.958h0.139l0,0h0.137l1.504,1.093l2.188,0.818v0.141l0,0l0,0l0,0l1.366,1.228l0.821,0.272l1.502-1.365v-0.135
	l2.324-1.777l1.232-2.322l2.186,1.227v0.135v0.139l0.549,1.777v0.41l-0.275,1.096l0.138,0.271l1.366-0.683l1.912-1.915h1.779v0.136
	h0.137l1.23,0.822c0.82,0.819,1.094,1.503,0.82,2.185l-0.137,3.01l0.82,1.503l0.275,0.136c3.276-3.553,5.467-5.33,6.835-5.33h3.688
	l0.82-1.777l2.873-1.366h0.136l3.554-0.274l3.693-1.916v-0.135h2.324l-0.413-1.092l0.14-0.274l0.545-0.548l-5.059-10.799v-0.274
	l-0.139-0.134l2.189-3.01l-0.684-0.684l-3.691-0.683h-0.41l0,0v-0.272l-2.324-2.462l0.139-0.549l-0.139,0.136l-0.137,0.139
	l-2.053-1.367c-0.955,1.229-1.911,2.049-3.004,2.326c-0.957,0.408-2.463-0.685-4.512-3.146l-1.097-1.365
	c-0.134-0.275-1.092,0-2.596,0.545c-2.323,0.82-3.827,0.957-4.511,0.546c-0.684-0.679-0.957-2.048-0.684-3.823
	c0.136-1.509,0-2.326-0.273-2.738l-17.772-0.957c-1.638-0.682-3.007-1.366-3.689-2.049l-2.735-0.684
	c-1.094-0.409-3.143-2.188-5.879-5.605l-1.777,1.505l-2.734-0.822l-7.381,0.136l0,0l0,0L377.643,338.311z"/>
<path fill="#A03735" d="M466.916,457.656c1.227-0.137,1.91-0.684,2.182-1.367v-0.137l0.139-0.41h0.546l2.464-0.136v-1.777
	c-0.686,0-1.369-0.274-2.053-0.819l-4.1-3.69v-0.14l-1.779-5.194l-2.461-2.46c-3.008-0.139-5.33-0.139-6.971,0l-0.547,0.137
	l0.136,1.639v0.273v0.411h-0.411l-2.185,0.958l-0.411-0.275c-1.777-1.775-2.873-2.46-3.555-2.051
	c-4.785,2.326-7.52,3.418-8.338,2.871c-0.549,0.139-1.234,0.684-2.189,1.641l-0.41,0.549l-0.546-0.549
	c-1.368-1.227-2.05-2.323-2.05-3.144c0-0.548,0.957-1.638,2.596-3.417c1.915-2.188,2.871-3.416,2.871-3.693l-0.41-0.682
	c-0.546-0.274-1.641,0.273-3.007,1.365c-1.368,0.958-2.188,1.367-2.733,1.234c-0.273,0-0.549-0.412-0.684-1.093l-0.139-0.276
	l-1.229-2.191l-2.599,1.643l-0.272,0.277l-0.138-0.277h-0.136c-1.913-1.093-3.691-1.775-5.469-2.459
	c-1.23-0.409-2.461,0.135-3.691,1.641l1.23,2.049c0.82,2.051,1.23,3.42,0.82,4.378c-0.138,0.409-0.548,0.817-1.094,0.817
	c-0.82,0.273-2.05,0-3.555-1.228c-1.23-0.822-2.188-1.505-3.007-1.917l-1.642-0.681v0.134l0,0l0.139,0.273v3.01l-2.188,2.459v2.326
	l0.955,2.459l0.137,0.138l-1.5,2.323l-0.959,2.188v0.136l-2.051,2.051l-3.418,7.793l0.136,4.236l-0.136,0.138l-7.382,4.239
	l-0.411,0.82l0.957,2.188v0.137v0.137l-0.684,2.869l-3.008-0.41l-0.683,3.691h-3.829l-0.819,1.367l0,0l-1.093,2.322l-0.684,8.614
	l0.82,1.777l0.137,0.276v1.773l1.639,2.051l0.139,0.275v1.639l4.373-0.273l0.275-0.41v-0.135h0.137v-0.139l1.23-1.639l-2.736-2.462
	l-0.273-0.272l-1.504-1.232l-0.137-0.135l-0.137-0.138v-2.734h2.324l0.274-0.955l-0.957-2.735h5.331l9.434-4.514l1.229-2.051
	l0.275-0.682l1.914,0.822h0.136l0.139,0.408l0.818,0.957l0.956-0.138l-0.274-2.05h3.146l3.008,0.547l1.23-2.051l0.136-0.136v-0.138
	l0.272-0.135l3.281-0.959l0.547-4.785l3.418,3.006l1.367,0.276l0.684-0.822l-0.411-10.388v-0.273v-0.549l2.325,0.411h0.136
	c0,0,0.212,0.095,0.274,0.138c0.039,0.025,0.107,0.096,0.136,0.135c1.149,1.53,3.692,6.701,3.692,6.701l4.646-0.547l0.82-0.273
	l0.684-1.644l-1.366-1.089l-0.411-0.549l3.145-1.093l0.275-0.14l0.137-0.135l1.229,1.367l1.093-0.549v-2.051l0.684-0.135h2.324
	c1.641,0.135,2.873,0.955,3.828,2.186l0.273,0.549l0.955-3.283c0.55-0.82,1.643-0.955,3.283-0.271l0.272,0.135v0.137l0.138,0.139
	c0.137,0.135,0.408,0.272,0.547,0.272c0.684-0.272,3.145-1.913,7.109-5.058C464.043,459.299,465.137,458.203,466.916,457.656z"/>
<path fill="#C13531" d="M467.459,377.549l-0.137-0.14l-3.008-2.596l-1.639,0.818c-1.096,2.462-2.598,3.965-4.514,4.647
	c-0.545,0.271-1.229,0.137-1.639-0.273c-0.547-0.683-0.274-2.188,0.685-4.512l-4.515,2.872l-0.135,0.272h-0.138h-3.962l-3.557,1.777
	v0.273l-3.828,0.137l-2.051,1.095l-0.955,1.915l-0.275,0.273h-4.509c-0.823,0-2.6,1.366-5.471,4.236
	c1.367,0.547,2.052,1.092,2.325,1.506l0.136,0.818v-0.137l2.052,7.655l0,0l0.135,0.409v0.547h-0.135l-0.273,0.137h-0.137
	l-5.467,7.52l0.273,1.916c0.818-0.687,1.502-0.824,2.049-0.549c0.682,0.273,0.954,1.367,0.682,3.006
	c-0.272,2.602,0.139,5.471,1.369,8.203l1.914,2.052c0.684,0.685,0.957,1.366,0.82,2.052l-0.957,1.367l1.229,1.639
	c0.684,1.369,0.138,3.691-1.503,6.973l1.777,3.008l0.273,0.686l1.094-0.686c1.775-1.641,3.279-2.051,4.51-1.641
	c0.821,0.273,1.232,0.956,1.367,1.641c0.139,0.957-0.957,2.598-3.418,5.059l-1.914,2.46l0.957,1.503
	c1.365-1.229,2.461-1.64,3.146-1.367c0.821,0,3.144-0.82,7.108-2.87c1.232-0.683,2.873,0,4.922,2.05l0.818-0.408l-0.137-1.642
	l-0.409-0.272c-0.272-0.41,0-0.822,0.409-1.23l-0.682-2.596c-0.139-0.411-0.139-0.959,0-1.37c0.41-0.409,0.955-0.683,1.502-0.956
	l1.232-1.094l-0.685-1.641v-0.137h0.138v-0.139c0.547-0.82,0.547-1.5,0.408-1.912c-0.546-0.957-0.135-1.639,0.958-2.6l1.506-1.364
	l-0.274-0.274l-0.41-0.41l1.777-0.818v-2.189c0-0.819,0.682-1.912,2.596-3.279l0.821-0.686l0,0l-2.05-2.324
	c-0.686-0.955-0.41-2.184,0.818-3.417v-0.272l4.239-3.553l0.138-0.957c-0.82-0.275-1.096-1.779-0.684-4.104
	c0.546-3.69,2.186-5.468,5.057-5.879l0,0h0.273l1.777,0.959h1.914l1.777-2.189l0,0l0,0l0.136-0.135l2.187-1.369l-0.272-1.914v-0.407
	l0.272-0.276l0.549-0.272l0.683-0.819l0.136-0.137l-1.367-2.324c-1.367-1.777-2.598-3.417-3.416-5.332
	c-0.684-1.229-0.547-2.597,0.412-4.102l-2.463-1.504L467.459,377.549z"/>
<path fill="#803B40" d="M478.668,395.863l-0.271,0.139l-2.324,1.639l-2.051,2.325h-0.137v0.273h-3.008l0,0l-1.641-0.958
	c-2.05,0.55-3.143,1.916-3.555,4.512l-0.135,2.325l1.64-1.503l-1.093,4.51v0.137v0.137l-4.514,3.964
	c-0.684,0.821-0.955,1.505-0.684,1.915l0.821,0.957c0.958,0.819,1.503,1.504,1.366,2.049c0,0.411-0.137,0.819-0.408,1.094
	l-2.872,2.461c0.136,0.686,0.136,1.776,0,3.01v0.408l-0.136,0.139l-1.093,0.408c0,0.684-0.274,1.093-0.958,1.777l-1.506,1.502v0.139
	c0.275,0.684,0.275,1.504-0.271,2.734c0.684,1.367,0.684,2.324,0,2.732l-1.368,1.369l-0.273,0.137l-0.683,0.273v0.274l0.956,3.28
	h0.272c2.325-0.273,4.787-0.273,7.518,0h0.274v0.135l3.011,3.01v0.135h0.135l1.777,5.062l3.691,3.415l1.504,0.547l0.137-4.238
	l3.416,3.418l0.547-0.547l2.464-5.055l0.407-2.876l0.41,0.14h0.275l2.596,0.135l-0.137-2.05v-0.409v-0.273h0.41l3.418,0.135
	c1.777-1.777,2.598-3.279,2.598-4.51l-0.546-4.922l3.008,0.958l0.819-1.366l-1.367-1.366l-0.41-0.55l2.734-2.732l0.137,0.271h0.273
	l1.641,0.959v-0.412l-1.096-2.461l0.413-0.409l0.683-0.411l-0.273-0.957l-1.367-2.598l0.273-0.137l0.271-0.271l3.693-2.051
	l0.139-1.504c-3.146-1.643-4.787-3.008-4.515-3.692c0.138-0.548,0.411-0.685,1.096-0.685l4.101,0.685l0.137-2.462v-0.271l2.051-2.05
	l0.547-1.507c-0.822-0.272-1.367-0.821-1.913-1.366l-0.138-0.271v-0.274l0.138-0.685l-0.138-0.275l-0.273-0.133l-0.138,0.133
	c-0.272,0.549-0.954,0.96-1.913,0.96c-1.506,0-2.734-0.685-3.691-1.642v-0.136h-0.137l-1.095-1.915l-0.272,0.275
	c-0.137,0.819-0.683,1.64-1.641,2.324c-1.776,0.818-3.418,1.093-5.058,0.408c-1.094-0.408-1.776-1.23-2.188-2.459l-0.41-2.734
	c-0.408-2.6-0.955-4.102-1.777-4.514c-0.819-0.545-1.641-0.68-2.324-0.545l0.139,2.321L478.668,395.863z"/>
<path fill="#6C3B45" d="M500.27,356.767c-1.504,0.685-2.734,1.229-3.69,1.364c-0.823,0-2.19-0.271-4.103-0.957l-3.143-0.407
	c-0.959,0.407-2.053,1.777-3.557,4.101l2.051,4.375l-3.418,1.912h-0.136l-2.733-0.82c1.094,2.052,1.365,3.283,0.958,3.829
	l-0.273,1.093c-0.685,1.642-1.233,2.599-1.778,3.143l-4.785,4.24l1.229,0.685l-0.819,0.683c-1.094,0.958-1.369,2.051-0.82,2.87
	l3.28,5.06h0.136v0.135l1.505,2.734v0.14l0.138,0.136l-0.138,0.273v0.273v0.136l-0.272,0.274c0.685,0,1.231,0.273,1.914,0.685
	c1.092,0.683,1.912,2.597,2.321,5.467l0.55,2.735c0.271,0.682,0.545,1.094,1.229,1.365c1.094,0.547,2.461,0.41,3.691-0.408
	c0.684-0.408,1.094-0.822,0.959-1.232l-0.139-0.135v-0.274l2.326-1.642l0.27,0.273l1.78,3.01c0.683,0.545,1.368,0.818,2.46,0.818
	l0.686-0.136l0,0l-0.549-1.64l2.598,1.094h0.682h0.137l0.138,0.271l2.462,1.914l0.683-1.096l-0.137-4.645l0.137-0.139l0,0
	l1.642-2.052c0.137-0.271,0-0.82-0.682-1.501l-0.414-0.41l0.274-0.275l0.14-0.271l0.408-0.136l3.416-5.608l0.274,0.14l0.685,0.136
	l0.271,0.137v0.271l-0.271,2.19h0.271l3.831-3.417l-0.274-1.779h-0.683l-1.368,0.137l2.325-6.288l-2.051-0.273l0,0h-0.274v-0.274
	l-0.685-0.82c-0.408-0.819-0.408-1.504,0.137-2.188l3.282-0.135h2.05c0-0.686-0.41-1.914-1.637-3.967l-2.873-0.957l3.006-2.871
	v-0.683l-1.502,0.274h-0.549v-0.138l-0.135-0.137l-0.138-0.274c-0.411-1.366-1.229-2.461-2.463-2.869l-5.468,0.135l-2.322,2.734
	v0.139l-0.684-0.139l-8.615-2.734l8.342-2.187c0.546,0,1.912-1.366,4.238-4.103l-2.871-2.049L500.27,356.767z"/>
<path fill="#A03735" d="M467.731,332.979h-0.136v-0.135c-1.502-5.197-2.87-8.069-3.828-8.478l-4.785-1.642
	c-2.733-0.816-4.646-1.367-5.467-1.911c-1.367-0.822-3.143-2.734-5.194-5.882H447.5l0.137,0.137c0.273,1.096,1.367,3.011,3.69,5.745
	l0.138,0.136l0.138,0.273l-2.188,3.963c-0.822,1.504-1.641,2.188-2.461,1.913c-0.546-0.272-1.641-1.501-3.417-3.825l-2.323-0.683
	c0,0.683,0.41,2.05,1.365,4.235v0.139v0.134v0.14v0.135l-0.408,1.505l-2.463,1.093l0,0l-0.819,0.273
	c-0.411,0.409-0.411,1.094-0.274,1.914c0.274,2.051,0.137,3.281-0.275,3.828c-0.27,0.273-0.408,0.273-0.682,0.273h-0.137l0,0
	l-2.731-0.547c0.134,0.547,0.546,1.092,1.228,1.506c1.367,1.229,2.461,3.004,3.557,5.056l0.135,0.411l0,0l1.232-0.274
	c1.502-0.272,2.869,0,4.234,0.959l1.506,1.775l0.137,0.138v0.137h-0.137l-0.138,3.553c0.411,0.548,0.685,1.234,0.411,1.777
	c-0.273,0.685-0.82,1.094-1.779,1.232c-1.092,0-1.638,0.682-1.912,2.048l0,0l0,0v0.14l-1.092,2.322l1.639,1.639l3.555,0.688h0.273
	l0,0l1.777,1.911l-2.188,3.281l5.057,10.937l0.138,0.273l-0.818,0.957l0.273,0.82h0.134l9.299-5.878l-1.505,2.734
	c-1.229,2.052-1.913,3.829-2.187,5.056c1.641-0.682,3.008-1.912,3.826-4.097l0.137-0.274h0.138l2.597-1.367l0.138-0.274l3.69,3.28
	l4.104,0.139l0.136,0.137l1.915,1.23l5.055-4.375c0.412-0.411,0.821-1.231,1.367-2.598l0.549-1.094
	c0.137-0.547-0.549-1.914-1.916-4.238l-1.229-1.777l6.014,2.051l1.778-0.959l-1.778-3.826l-0.134-0.138l3.006-3.963l-1.23-1.916
	c-1.23-1.366-2.051-2.052-2.598-2.052l-0.273,0.141l-1.502,1.502l-0.272-0.137h-0.274l-2.461-0.82l-0.684-2.188
	c-0.959-0.136-1.914-0.681-2.734-1.637l-1.504-0.961c-1.229-0.545-1.914-1.229-1.914-1.912c-0.273-0.82,0-1.778,0.821-3.007
	c1.503-2.188,2.321-3.967,2.321-5.332v-1.779l0.959,0.137l3.145,0.14c0.273-0.276,0.684-1.64,1.229-4.101l-0.955-0.141
	c-2.188,1.506-3.828,2.464-5.059,2.873c-1.505,0.41-3.417-0.409-6.152-2.322v-0.137L467.731,332.979z"/>
<path fill="#803B40" d="M452.83,241.383l-0.409-0.273c-0.683,0-1.367,0.685-2.048,2.189l-0.413-0.275l-0.134,0.137l0.134,0.139
	l-1.229,1.229l-0.548,0.272l-1.504,0.822l-0.138,0.956c0.138,1.504-0.272,2.599-0.956,3.009l-0.546,1.639
	c-0.138,0.409-0.275,1.504-0.138,3.008l0.82,4.102c0.272,0.546,0.957,1.229,2.326,1.775l3.143,0.82c0.818,0,1.912-0.408,3.145-1.228
	l-0.82-1.505v-0.271v-0.14l0.273-1.23v-0.137l1.505-2.732h2.597l0.685-0.137c-0.274-0.822-1.095-2.326-2.599-4.24l-0.958-1.367
	c-0.547-1.092-1.093-2.322-1.229-3.963C453.516,242.749,453.104,241.932,452.83,241.383z"/>
<path fill="#293C54" d="M440.391,236.188l-0.272,0.412l-0.411-0.137l-1.777-0.275l-0.137,0.822v0.412h-0.41l-2.87,1.092l-0.136,0.41
	c-0.41,0.957,0,1.777,0.957,2.87l0.273,0.274l-0.273,0.41c-0.821,1.365-2.05,2.732-3.418,3.689
	c-0.547,0.411-0.685,0.822-0.685,1.232l0.956,1.229l1.506,0.549l1.229,0.135c1.641,0,2.734,0.139,3.146,0.822l1.365,0.956
	c0.957,0.409,1.779,0.685,2.461,0.685c0.547,0,1.23-0.412,1.777-1.506l1.093-1.229l0.821-2.598l-0.684-3.008l1.093,0.273
	l1.778,0.135l0.818-0.545l0.275-0.685l-1.367-3.964l0.41-1.366c0.411-0.821,0.957-1.097,1.504-1.231h0.137l-0.273-0.959
	l-3.282,0.139v-0.139l-3.005-2.047c-1.232-0.823-2.463-0.959-3.557-0.684l-0.41,0.271c-0.273,0.547,0,1.097,0.82,1.369
	C440.527,234.55,440.802,235.232,440.391,236.188z"/>
<path fill="#A03735" d="M491.384,201.465l-1.64,2.188c-0.273,0.409-0.41,1.229-0.139,2.598v0.82h-3.28h-0.139l0,0l-2.323-0.682
	l-1.777,2.734l-0.271,0.272l-2.189,1.366l-1.912,2.053l0,0l-0.273,0.41l0,0l-3.418,3.963v0.137h-0.137l-2.598,1.367l-2.051-1.367
	v-0.137l0,0l0,0l-1.914-2.053l-1.229-0.682l0.955,5.605l0.82,3.008l-2.049,1.912l-2.873,4.239v1.777l-0.135,0.136h-0.137
	l-0.684,1.093l0.544,0.958h1.095l3.965,1.094h0.136h0.138v0.135h0.137l0.82,0.822l1.094,0.547l0,0h0.273v0.135
	c0.411,0.549,0.684,1.096,0.684,1.645l0.41,1.229l4.238,1.229l1.229-0.272l1.231-1.64l3.282-6.289h0.137v-0.14l1.502-2.049
	l0.137-0.137l2.599-1.229l1.778-0.138c0.684-1.094,1.229-1.642,1.914-1.642c0.41,0,1.092,0.274,2.186,0.821l0.273,0.136v0.14
	l2.324,3.553v0.139h0.138v0.271l0.272,2.596l-0.139,2.873l0,0l-0.683,2.463l0,0v0.271h-0.136l-1.777,2.188l-0.82,1.777l0.137,3.006
	h0.274l0.955-0.407l1.095-0.959l0.272-0.274l0.138-0.273l1.367,1.232v0.135v2.188h-0.137l-1.23,0.548l-0.41,0.548v1.229
	l-0.139,0.137l0,0l-0.818,1.503h-0.138l-0.272,0.138l-1.094,0.137l-1.094,0.274l-0.818,1.503l0.135,0.274l4.511-0.549l0.821-0.683
	l1.504-3.964l0,0l10.117-10.392h0.273l2.186-1.093l0.137-0.137v0.137h1.779l1.776-0.408l1.913-0.82l1.367-1.506l2.186-6.015l0,0
	v-0.138l8.479-8.886v-0.136l-0.547-4.785c-0.41-0.139-0.958-0.411-1.232-0.82l-0.271-0.271v0.135l-1.368,0.137
	c-0.681-0.271-1.093-0.546-1.64-1.229l-0.409-0.822v-0.137l-0.138-0.138v-7.38c-0.819-0.275-1.641-0.82-2.598-1.779l-1.778-1.914
	l-1.64-2.322c-0.272-0.547-0.272-1.367-0.136-2.596l0.136-0.688l-0.956-1.231l-0.138,1.095l-1.229,2.325h-0.409
	c-0.959,0-2.051-0.136-2.873-0.546c-0.82-0.272-1.23-0.955-1.23-1.779v-0.545h-0.683l-2.596,0.682l-1.916-1.912l-0.684-0.135
	l-0.685,0.681l0.821,1.366l0.274,0.41l-1.368,2.873h-0.138v0.137h-0.137l-2.457,2.732l-0.139,0.137h-0.274l-3.827,0.41
	L491.384,201.465z"/>
<path fill="#C13531" d="M494.389,159.631l-0.545-2.87l-1.367,0.821h-0.138l-3.278,1.23l-0.139-0.271l-0.547-0.139v1.505
	l-0.137,0.137l-1.641,2.46h-0.137v0.138h-0.136l-2.462,2.05h-0.271v0.273l-0.412-0.273c-1.639-0.684-2.732-1.506-3.007-2.188
	c-0.272-0.273-0.409-0.273-0.683-0.412l-1.777,0.273l-1.095,1.095l2.872,2.46l2.324,0.959l0.137,0.137h0.135l0.14,0.275v0.135
	l0.409,2.734h0.135v4.237l0.549,2.462l1.639,3.825l1.914,1.781l1.504-1.095l1.096-1.367v-0.139h0.135l1.914-2.324l1.641,1.506v0.135
	l0,0l0,0v0.137l1.642,3.147l2.05,0.816l1.096,3.282v0.137v0.138l-0.14,3.005v0.139h-0.134l-0.822,2.736l1.505,1.364l1.64-0.82
	l1.641-1.64l0.409,0.273l1.368,0.411l0,0l0,0l1.643,1.503l1.773-0.408c1.367-0.412,2.051,0,2.461,0.953v1.23l0.274,0.139
	l1.913,0.545l0.821-1.777v-0.682c0-0.548,0.136-1.092,0.546-1.23l1.096,0.139c1.503,0.684,2.186,1.637,2.186,2.73l-0.137,0.959
	v1.639l1.504,2.189l1.777,1.912c0.548,0.684,1.23,0.958,1.914,1.23h0.273c0.411,0.273,0.686,0.957,0.686,2.462v6.151
	c0.272,0.547,0.681,0.958,1.092,1.093h0.273c0.82-0.411,1.366-0.271,2.051,0.411l0.41,0.271c0.684,0.14,1.229,0.686,1.367,1.779
	l0.273,3.418l3.143-6.426c0.957-3.416,2.051-5.469,3.555-5.741c1.231-0.409,3.145,0.272,5.605,1.643l8.885,0.683l0.273-1.916
	l-4.1-3.965c-1.914-1.094-2.735-1.913-2.462-2.461l3.146,0.137c2.869,0.959,5.604-0.682,8.202-5.332l0,0h0.138l3.008-2.867
	l0.41-6.291v-0.686h0.409h0.273l2.325-0.544h0.41l0.273,0.136v0.138l4.783,5.059l1.367-0.548l0.272-0.822l-2.597-2.459l-0.41-0.273
	l-0.273-0.411l3.964-2.323l-0.271-5.739l-1.643,0.271l0,0h-0.139l-2.186-1.093c-0.819-0.137-1.914-0.685-3.553-1.642
	c-0.822-0.408-1.367-0.818-1.367-1.367v0.14c0,0.544-0.139,0.819-0.412,0.957c-0.41,0.271-0.955,0.409-1.914,0.409h-0.137
	l-0.136-0.139h-0.136l-1.914-1.367l-1.642,1.367c-0.82,0.685-1.368,1.23-1.368,1.779l0.822,1.777c0.41,0.543,0.41,0.818,0.272,1.229
	c-0.272,0.409-0.956,0.82-1.913,0.955l-0.821,0.411c-0.958,0.274-1.778,0.138-2.323-0.546l-0.273-0.411l-3.555-3.689
	c-1.641-0.548-2.598-1.231-3.008-2.05c-0.273-0.408-0.41-0.822-0.273-1.094c-0.137-1.231-0.41-2.051-0.684-2.461l-0.684,0.41
	l-0.137,0.271c0,0.412,0.137,0.823,0.547,1.368l0.139,0.274l0.135,0.137l-0.135,0.271l-1.916,3.146l-3.144-0.684l-0.683-0.411l0,0
	v-0.411c0.27-0.544,0.27-1.227,0-1.912l-0.412-1.096l-2.598-1.913l-0.137-0.135c-0.271,0.409-0.545,0.409-0.818,0.544l-2.461-0.273
	c-0.822-0.136-1.367-0.271-1.641-0.818c-0.137-0.274-0.137-0.821,0.135-1.506l0.139-0.408l-1.095-1.913l-4.782,0.272
	c0.137,0.686,0,1.094-0.274,1.641c-0.139,0.408-0.685,0.547-1.095,0.547c-0.684,0.272-1.506,0-2.188-0.685v-0.136H516.4
	c-1.094-1.23-1.504-2.188-1.504-3.008l-0.955-1.366l-1.368,0.955c-1.229,0.683-2.05,0.683-2.463,0.138l-0.545-0.138l-1.368,0.138
	l-3.688,1.229c-0.821,0.549-1.505,0.686-2.052,0.686h-0.411c-1.368,0-2.188-0.412-2.733-0.957l-2.188-1.779L494.389,159.631z"/>
<path fill="#A03735" d="M579.424,133.933l-2.051-13.396l0.137-0.274h0.137c0.955-1.504,1.504-2.732,1.229-3.689l-0.543-0.822
	c-1.506-0.957-2.189-3.146-1.779-6.834h-1.232c-0.957-0.138-2.051,0.271-3.143,0.957c-1.094,0.82-1.777,1.777-1.914,2.46
	c-0.547,1.64-2.322,2.732-5.332,3.689l-0.684,4.239v0.136l-0.139,0.139l-1.498,2.735l-0.14,0.27h-0.138h-0.136l-13.535,2.463h-0.138
	h-0.408v-0.275l-3.963-4.238l1.229-1.229l-1.504-2.049l-1.914-1.37l-0.137-0.136h-0.138v-0.135v-0.139l-0.683-3.689l-3.555,0.271
	l-0.271-0.271l-3.009-1.779l-10.8-1.912l-9.022-0.412l-0.272,0.275c-0.411,0-0.684-0.138-0.82-0.412l-5.197-11.758
	c-0.545-0.957-2.732-3.963-7.108-9.159c-4.101-5.058-6.425-7.792-7.108-8.337l-7.657-7.52l-1.229-0.685l-9.568-0.137h-0.137
	l-0.273-0.272c-0.957-0.684-2.324-1.366-4.374-1.777c-1.778-0.686-5.879,0.682-12.304,4.102l-0.272,0.137l0.272,1.912h0.136v0.137
	h-0.136v0.275l-1.093,2.188v0.137h-0.139l-0.136,1.504c0,1.229,0.274,2.595,0.684,3.691l0.958,0.681l2.05-0.136l1.775,0.408
	l0.684-0.545c0-1.229,0.412-2.186,0.959-2.46h1.367l4.783,1.368l1.094,0.133l-1.505,2.6v3.146c0,0.685,1.232,2.321,3.692,4.647
	c1.504,1.094,2.459,1.64,3.279,1.779l0.686-0.14l0.683-0.274l2.325-2.322l1.778-1.093v-0.14l0,0l3.688-0.545l1.094-2.324
	l3.281-1.914l2.871,1.641v0.136l0.273,0.138l2.736,4.648l1.092,3.145v0.41l-0.549,3.827l1.095,2.597v0.412l-0.819,3.004v2.736
	c0.819,2.461,1.232,4.1,1.232,4.512l-0.273,2.322l0,0v0.137l-1.368,1.914v0.141l0,0l0,0l-1.368,1.639l-0.137,3.006l0.822,3.146l0,0
	l0.135,0.135l-0.135,0.137l0,0l-0.822,4.786l-0.686,0.683c-0.545,0.41-1.229,0.41-2.05,0h-0.272l-1.229-1.367l-1.367,0.412
	l-1.778,1.912l-1.915,5.607v0.137l-0.136,0.135l-1.915,1.639h-0.271l-1.094,0.139l-2.188,3.145l1.095,2.053l0.273,0.271l2.733,3.418
	v0.137v1.092l3.007,0.409l0.547,2.735v0.139l0.41,3.28l0.822,0.683l2.732-0.822l2.596-1.502l0.413-0.273l0.954,4.647l1.232,1.779
	l0.273,0.136l0.959,1.914l2.049,1.64c0.271,0.411,0.955,0.411,1.64,0.411l0.684,0.137l1.231-0.548
	c0.957-0.411,1.914-0.819,3.006-0.955l0.822-0.413l1.913-0.137c0.683,0,0.958,0.137,1.366,0.55l2.735-1.779h0.274l0.271,0.142
	l0.138-0.142l0.272,0.272c1.094,1.232,1.64,2.325,1.64,2.873l1.231,2.051l0.957,0.275h0.137h0.137l-0.273-0.275
	c-0.139-0.683-0.139-1.096,0-1.367c0.273-0.412,0.82-0.684,1.643-0.684l5.055-0.137l0.139-0.137h0.273v0.273h0.271l1.506,2.873
	l-0.139,1.501h-0.135l1.914,0.411h0.137c-0.137-0.411-0.137-0.685,0.137-0.957l0.682-0.139l4.513,3.146
	c0.409,0.41,0.683,0.955,0.821,1.64l0.135,1.916l1.506,0.272l0.957-1.641c-0.412-0.82-0.684-1.643-0.547-2.188
	c0.135-0.549,0.271-0.958,0.818-1.23l0.411-0.41c0-0.274,0.139-0.41,0.409-0.547l1.23,0.137c0.682,0.41,1.23,1.775,1.503,4.102
	v0.271l0.274,0.14c0.138,0.544,0.957,0.957,2.189,1.366h0.134l0.138,0.135l4.373,4.512l0,0l2.053-0.686l-0.273-0.683
	c-0.547-0.683-0.685-1.366-0.685-1.775c0-0.957,0.685-1.912,2.051-2.869l2.327-2.052l2.732,1.912h0.545l0.548-3.006v-0.547
	l0.546-0.139l2.189,0.276c0.41,0.409,0.684,0.817,0.684,1.503c0,0.545-0.41,1.229-0.822,1.777l0.412,0.274
	c1.366,0.683,2.46,1.228,3.279,1.366h0.137l0,0l1.777,0.957l1.367-0.139l-2.051-9.979c-1.367-0.82-2.598-2.461-3.826-4.377
	c-0.957-1.639-0.412-3.96,1.776-6.696c1.228-1.366,2.733-2.733,4.376-4.101l0,0l0.136-0.274h1.915l0.136,0.274l1.64,0.683h3.418
	c1.367-0.683,2.596-2.734,3.965-6.016C579.97,144.049,579.97,140.084,579.424,133.933z"/>
<path fill="#6C3B45" d="M500.541,269.958l-0.271,0.134c0,0.686-0.412,1.094-1.095,1.094l-5.331-0.545
	c-3.689-0.683-5.985-2.09-7.383-1.915c-2.566,0.323-7.519,7.107-7.519,7.107l0.275,3.009v0.275l-0.686,0.135
	c-5.878,0.82-9.022,0.272-9.435-1.641l-0.684-8.475l-6.834-0.411l-2.869,6.017l-0.274-2.6c-0.136-2.051-0.546-3.279-0.956-3.553
	l-3.009,1.502l-1.368,1.777l-0.137,0.139h-0.137l-2.73,0.957c-3.009,2.459-5.608,5.058-7.93,7.793l-7.248,9.841l1.505,3.419v0.547
	l0,0l-0.14,0.138c-0.543,0.819-0.271,2.048,0.551,3.415c0.955,1.777,1.639,3.693,1.639,5.879v0.412l-5.877,3.416v1.368l2.734,1.229
	c0.273,0.137,0.41,0.41,0.41,0.548v0.272c-0.137,0.685,0.956,1.639,3.006,2.598l5.059,1.367l1.504-0.957l1.641-2.323l1.368-3.966
	l3.962,1.502l0.547,0.414v0.273l0,0v0.135c-0.682,1.642-0.271,2.736,0.959,3.417l4.373,0.138c1.506-0.272,2.734-0.818,3.556-1.502
	c0.544-0.686,1.366-0.824,2.597-0.686c1.506,0.274,2.872,0.822,3.828,2.05l0.955-2.323l0.273-0.409h0.139
	c0.684-0.411,1.095-1.093,1.641-2.05c0.41-0.959,1.096-1.916,2.188-2.6l1.914-1.094l0.137-0.135l0.137,0.135h0.137l1.092,0.276l0,0
	l0.274,0.133l1.504-6.837v-0.133l2.187-0.412c2.188-1.504,3.283-2.732,3.145-3.826l-0.408-2.053
	c-0.549-1.367-0.549-2.324-0.275-2.732c0.412-0.41,0.684-0.545,1.095-0.545c0.956,0,2.051,0.272,3.146,0.816l0.272-2.186v-0.273
	l0.136-0.135l2.326-1.096l0.271-1.229h-1.365l-0.273-0.14l0.135-0.683v-0.41l0.139-0.275h0.41h0.273
	c0.955,0,2.049-0.545,3.277-1.637l8.615-6.152h0.272l2.733,1.23l1.096-0.138l-0.682-2.87v-0.273l0.136-0.139l0.136-0.135
	l1.502-2.461l-0.408-0.273l-0.957,0.273v0.135h-0.137l-2.735,0.411h-0.684h-0.136v-0.136l-0.137-0.41l-0.547-0.956H500.541z"/>
<path fill="#293C54" d="M512.711,351.296l0.956-1.089l0,0l0,0v-0.141l-3.419-2.734c-1.775-1.23-3.28-1.641-4.373-1.502l-1.504,0.547
	v2.869c-0.274,0.961-0.684,2.05-1.641,2.871l-0.548,0.547l1.367,1.641h0.138l0.409,1.094l1.642,0.684
	c0.956-0.684,1.641-0.957,2.322-0.82l2.871,0.546l0.137-0.957C511.207,352.939,511.891,351.844,512.711,351.296z"/>
<path fill="#413C4E" d="M492.888,321.223c-1.504-1.231-2.733-3.418-3.966-6.836c-3.965,0-6.287-0.685-7.381-2.049
	c-0.822-1.232-2.461-2.053-4.787-2.736l-0.682-0.139l0.682-2.322l-0.409-0.273l-0.683-0.137c-1.641,0.822-2.734,1.643-3.146,2.732
	c-0.546,1.096-1.229,2.051-2.051,2.736c-0.684,2.188-1.368,3.28-2.052,3.28c-0.408,0.138-0.683-0.137-0.955-0.548l-1.094-0.954
	c-0.818-0.41-1.64-0.823-2.322-0.823l-1.367,0.275c-0.958,0.957-2.325,1.639-4.375,1.913l-5.197-0.274
	c-1.639-0.818-2.323-2.459-1.912-4.51l-1.914-0.682l-0.956,2.732l0,0v0.138l-0.138,0.134l-0.41,0.549l1.23,0.272h0.273l0.137,0.138
	v0.138c2.324,3.144,4.102,5.196,5.058,5.739c0.547,0.274,2.189,0.822,5.06,1.641l4.921,1.775c1.503,0.686,3.007,3.693,4.646,9.025
	c2.189,1.504,3.557,2.188,4.515,2.051c0.957-0.41,2.595-1.365,4.92-2.871l0.136-0.137l0.139-0.137l0.273,0.137l2.461,0.547h0.273
	v0.41l-0.137,0.411c-0.82,3.282-1.505,5.194-2.053,5.741l-3.28,0.137v0.139c0,1.367-0.956,3.416-2.732,6.014
	c-0.547,0.82-0.685,1.502-0.685,1.912l3.145,2.187c0.819,0.961,1.367,1.233,2.05,1.233h0.685l0.684,2.323l1.502,0.544l0.822-0.816
	c0.411-0.412,0.955-0.687,1.365-0.548c1.367,0,2.462,0.82,3.828,2.596l0,0l1.23,1.642l0.137-0.139
	c0.82-0.546,2.324-0.408,4.513,0.274l3.552,0.819l3.284-1.094l1.366-0.683l0.956-0.681l-0.821-0.958
	c-0.272-0.548,0-1.229,0.685-1.916c0.821-0.681,1.366-1.364,1.366-2.187v-1.641c-0.271-0.82-0.134-1.367,0.139-1.639
	c0.273-0.547,1.229-0.822,2.324-1.094c1.777-0.273,3.963,0.547,6.562,2.732l-0.956-2.732l-1.504-2.051l-0.274-2.463l-2.324-0.41
	h-0.137v-0.134l0,0l0,0l-6.152-3.555l-3.005-0.548v-0.684l-0.14-3.145C495.756,326.008,494.117,322.453,492.888,321.223z"/>
<path fill="#C13531" d="M469.236,237.146l-1.094-0.547l0,0h-0.137l-0.819-0.82l-3.828-1.094H462.4l-0.683,0.271l-1.505-2.869
	l0.138-0.136l1.093-1.366v-1.641l0.137-0.273l0.682-1.094l-0.544-0.275l-2.05-0.41l0,0l-3.557-0.547h-0.271l-2.051-2.051v-0.135
	l-0.686-1.369l-0.137-0.408l1.094-2.871v-2.052l-0.135-0.546l-1.096,1.094l-0.137,0.135l-0.272,0.412l-0.272-0.412l-0.41-0.135
	l-2.051-1.641l-0.273-0.271v-0.275l-0.41-3.006l-0.955-1.506l-2.054,0.137l-1.23,2.189l-0.136,0.272l-0.138,0.136l-3.278-0.684
	l-0.547,3.008v3.007l-0.139,0.138l-1.777,2.734v0.271l-0.273,0.139h-0.139l-2.051,0.135l-2.049,1.643l-0.271,0.272l0,0h-0.273
	l-0.137-0.136l-3.831-1.23l-0.545,1.366v0.138l-1.64,2.734c-0.273,0.545-0.685,0.82-1.092,0.955l-1.643-0.272l-2.188-0.958
	l-0.41-0.273l-0.138-0.137v-0.137l-0.409-3.279l-0.686-2.461l-0.408-0.684l-0.957,1.914l0,0l0,0l-1.639,2.188l-1.368,3.145v0.134
	l0,0v0.14h-0.136l-1.232,1.775c0,0.547-0.409,1.368-1.23,2.597l0.821,3.144l4.101,4.514l0,0l1.367,2.868v0.274l-0.137,0.275h-0.138
	l-1.093,1.367l-0.272,0.273l-2.735,0.547l0.275,2.186l2.05,1.096l3.006,0.684l0.82,2.732l0,0l0,0v0.137v0.138l-0.683,4.646l0,0
	v0.138l-1.094,2.049v0.413h-0.274l-3.416,0.546v1.366l-0.956,3.009l-0.412,3.416l0.684,1.917l4.238,2.595l0.137,0.139l1.776,3.008
	v0.134l0.138,0.139l-0.138,0.136l-2.187,4.785l-0.547,1.366l0,0l-1.365,3.146l-0.549,2.461l-0.135,0.271v0.139
	c-0.685,0.547-1.094,1.095-1.369,1.912c-0.136,0.275-0.136,0.549,0.137,0.82l0.139,0.14l1.365,1.501l0,0l0,0l0.685,1.094
	l0.274-0.135l0,0l0.136,0.41v0.139v0.408l0,0v0.138l0,0l0,0l0.272,0.819l1.23,0.41l4.922,1.094c1.643,0,3.145-0.411,4.785-1.094
	c1.641-0.684,3.145-0.821,4.786-0.547l0.271-0.957l-1.638-3.691l-0.14-0.273h0.14l7.79-10.799l8.34-8.066h0.137l2.598-0.957
	l1.367-1.504v-0.139c1.094-0.816,2.051-1.367,3.146-1.775l-0.821-0.686l-1.779-1.773v-0.139h-0.135l-1.367-1.643l-0.138-0.271
	v-0.272l0.683-0.822l-1.776,0.411l-3.827-0.957c-1.505-0.684-2.46-1.506-2.735-2.461c-0.819-2.462-1.093-4.646-0.956-6.562
	c-0.547,0.684-1.23,0.822-1.914,0.822l-2.871-0.686l-1.913-1.366l-2.322-0.548h-1.095c-0.684,0-1.506-0.271-2.051-0.818
	c-0.82-0.548-1.232-1.096-1.368-1.643c-0.272-1.094,0-1.775,0.957-2.46c0.956-0.683,2.053-1.777,3.007-3.144
	c-0.954-1.23-1.367-2.461-0.954-3.691l0.136-0.135c0.137-0.686,1.231-1.232,3.28-1.916c0.138-0.684,0.41-1.096,0.683-1.23
	l2.051,0.135l-0.272-0.273c-1.368-0.818-1.778-1.773-1.093-2.87l1.093-0.819c1.229-0.409,2.733-0.273,4.237,0.548l3.144,2.185h2.872
	l0.959,0.82l0.271,1.096c0,0.686-0.41,1.094-0.957,1.094c-0.684,0-0.956,0.684-1.096,1.504l1.368,3.281
	c0.82-1.23,1.643-1.915,2.461-2.051c0.409,0,0.956,0.275,1.368,0.82c0.409,0.682,0.82,1.913,1.094,3.143
	c0.136,1.505,0.545,2.735,0.957,3.42l1.094,1.504c1.642,2.05,2.598,3.553,2.87,4.785l5.333-0.684l2.322-1.233l2.188-2.732
	l0.958-2.596v-0.14v-0.135l0.683-2.734v-0.139l0.137-0.271h0.137l2.052-1.367l0.409-0.273l-0.137-0.139l-3.419-1.093h-0.272v-0.136
	l-0.684-2.051L469.236,237.146z"/>
<path fill="#293C54" d="M400.473,314.25h-0.138l-10.389,4.238l-3.146,3.008c-0.545,4.646,0,7.382,1.641,8.203l3.009,1.911h0.136
	v0.138l0.822,5.057c2.595,3.418,4.373,5.197,5.33,5.606l3.008,0.685l0.41,0.136v0.139c0.41,0.544,1.369,1.093,3.145,1.638
	l8.201,0.412c6.018,0,9.434,0.41,10.117,1.092c0.684,0.547,0.82,1.914,0.684,3.964c-0.136,1.368,0,2.188,0.137,2.323l3.01-0.682
	c2.322-0.821,3.689-0.821,4.373-0.135l1.094,1.369c1.641,2.047,2.735,2.866,3.006,2.73c0.822-0.274,1.778-1.095,2.734-2.459
	l0.273-0.411l2.461,1.503l1.504-1.23c0.412-1.914,1.367-2.869,3.008-3.009l0.684-0.269l-0.273-0.548l-0.272-0.274l0.134-0.139
	l0.139-3.416c-1.094-1.642-2.461-2.189-3.965-1.916c-1.504,0.412-2.598,0.412-3.01-0.135c-0.27-0.409-0.27-0.684-0.27-1.229
	c-0.958-1.645-1.914-3.01-3.146-4.24c-1.638-1.366-2.051-2.598-1.638-3.828l0.272-0.41l3.826,0.684l-0.272-2.322
	c-0.138-1.369,0-2.328,0.683-3.008c0.275-0.548,0.957-0.822,1.641-0.959l1.641-0.548v-0.681c-1.23-2.598-1.641-4.514-1.094-5.33
	l0.821-0.686c0.411-0.139,1.776,0.135,3.689,0.818l0,0l0.138,0.137v0.275c1.504,1.775,2.324,2.87,2.734,3.145l2.597-4.24
	c-2.323-2.869-3.553-4.92-3.965-5.74l-2.05,1.365l-0.273-0.27l-5.467-1.37h-0.137v-0.136c-2.324-1.096-3.691-2.326-3.83-3.555
	l-3.279-1.502v-3.146l6.014-3.555c-0.272-1.639-0.686-3.28-1.365-4.65l-0.956-1.91l-4.103,0.408
	c-1.915,0.82-3.692,1.232-5.469,1.232l-4.239-0.955v-1.508l-0.683-0.135l-1.23-0.41l-0.272-0.819l0,0v-0.138l0,0l0,0l-0.136-0.408
	v-0.139v-0.41l-0.274,0.135l-0.272,3.555l-0.139,1.232c-0.273,0.681-0.545,1.092-0.273,1.365c0.685,0.959,0.547,2.052-0.137,3.007
	l0.549,2.325l-0.139,0.137l-0.273,0.14l-1.641,1.501v3.146l-0.41,0.135c-3.008,1.367-5.057,2.053-6.288,2.053l-6.015-0.411
	l-2.597,2.323H400.473z"/>
<path fill="#803B40" d="M519.135,427.305c-4.371,3.146-7.519,7.111-9.569,11.896c-1.778,4.1-3.144,6.15-4.101,6.701l0.957,7.516
	v0.137l0,0l-0.684,5.193c-0.273,1.643,0,2.734,0.41,3.01l5.604,3.692l0,0h0.139l0.137,0.407l0,0
	c0.272,1.232,1.092,2.327,2.186,3.691c0.551,0.822,1.231,1.23,1.777,1.506l0.822-9.023v-0.273l3.964-9.568l1.368-11.348v-0.139
	l0.137-0.135l1.229-3.01l-0.957-2.597v-0.136h-0.136l-0.272-3.555l0.137-0.135l0.136-0.141l0.683-0.818l0.41-0.957L519.135,427.305z
	"/>
<path fill="#413C4E" d="M384.479,507.279l-0.41,0.684v0.141l-0.139,0.271l-5.604,1.367l0.274,0.683l1.775,2.05
	c-0.136,0-0.411,0.141-0.548,0.141l-2.596,1.366l-4.102,3.142c-1.367,1.641-1.093,4.646,0.957,9.16l4.103,0.41h0.136v0.137
	l4.1,1.913l4.375-0.683c1.778-0.408,3.828-2.051,6.427-5.195h0.138l0.271-0.273l1.914-0.548l-0.548-5.741v-0.271l2.462-3.557v-0.135
	h0.135l1.916-1.504c0.273-1.641,0.137-3.144-0.548-4.377c-0.546-1.091-1.229-1.501-1.913-1.501l0.273,2.05l-3.691-0.684l-1.64,0.955
	h-0.138l0,0H384.479z"/>
</svg>
